<svg width="454" height="250" viewBox="0 0 454 250" fill="none" xmlns="http://www.w3.org/2000/svg">
<g filter="url(#filter0_d_188_1386)">
<g clip-path="url(#clip0_188_1386)">
<g filter="url(#filter1_d_188_1386)">
<rect width="454" height="250" rx="10" fill="white"/>
</g>
<circle opacity="0.3" cx="444" cy="10" r="100" fill="#FFBC48"/>
<circle opacity="0.6" cx="439" cy="15" r="75" fill="#FFBC48"/>
<path d="M37.896 76H30.84V51.08C30.84 50.2587 30.84 49.4187 30.84 48.56C30.8773 47.7013 30.9147 46.8427 30.952 45.984C30.9893 45.088 31.0267 44.2667 31.064 43.52C30.6907 43.8933 30.224 44.3413 29.664 44.864C29.104 45.3493 28.5253 45.8533 27.928 46.376L23.448 49.96L19.92 45.592L32.016 36.016H37.896V76ZM64.3429 50.856C66.8815 50.856 69.1215 51.3227 71.0629 52.256C73.0042 53.1893 74.5162 54.552 75.5989 56.344C76.7189 58.0987 77.2789 60.264 77.2789 62.84C77.2789 65.6773 76.6815 68.1227 75.4869 70.176C74.2922 72.2293 72.5375 73.816 70.2229 74.936C67.9082 76.0187 65.0709 76.56 61.7109 76.56C59.6202 76.56 57.6602 76.3733 55.8309 76C54.0015 75.6267 52.4149 75.0853 51.0709 74.376V68.104C52.4522 68.8507 54.1135 69.4667 56.0549 69.952C57.9962 70.4373 59.8255 70.68 61.5429 70.68C63.3349 70.68 64.8655 70.4373 66.1349 69.952C67.4042 69.4293 68.3749 68.6453 69.0469 67.6C69.7189 66.5173 70.0549 65.1547 70.0549 63.512C70.0549 61.272 69.3455 59.5733 67.9269 58.416C66.5082 57.2587 64.3055 56.68 61.3189 56.68C60.2735 56.68 59.1349 56.7733 57.9029 56.96C56.7082 57.1467 55.7189 57.3333 54.9349 57.52L51.9109 55.84L53.4229 36.016H74.4789V42.176H59.6389L58.7989 51.416C59.4335 51.304 60.1802 51.192 61.0389 51.08C61.9349 50.9307 63.0362 50.856 64.3429 50.856Z" fill="black"/>
<path d="M104.664 77H102.216L96.294 66.614H96.222C96.234 66.854 96.246 67.112 96.258 67.388C96.282 67.664 96.3 67.958 96.312 68.27C96.324 68.57 96.336 68.882 96.348 69.206C96.36 69.518 96.372 69.836 96.384 70.16V77H94.566V64.148H96.996L102.9 74.48H102.972C102.96 74.3 102.948 74.078 102.936 73.814C102.924 73.538 102.912 73.244 102.9 72.932C102.888 72.62 102.876 72.302 102.864 71.978C102.852 71.654 102.846 71.348 102.846 71.06V64.148H104.664V77ZM111.294 67.118C112.098 67.118 112.794 67.298 113.382 67.658C113.97 68.006 114.42 68.51 114.732 69.17C115.056 69.83 115.218 70.61 115.218 71.51V72.554H109.116C109.14 73.55 109.38 74.312 109.836 74.84C110.292 75.368 110.934 75.632 111.762 75.632C112.35 75.632 112.872 75.578 113.328 75.47C113.796 75.35 114.27 75.176 114.75 74.948V76.532C114.294 76.748 113.826 76.91 113.346 77.018C112.878 77.126 112.308 77.18 111.636 77.18C110.76 77.18 109.98 76.994 109.296 76.622C108.612 76.25 108.078 75.698 107.694 74.966C107.31 74.222 107.118 73.31 107.118 72.23C107.118 71.138 107.292 70.214 107.64 69.458C107.988 68.702 108.474 68.126 109.098 67.73C109.734 67.322 110.466 67.118 111.294 67.118ZM111.294 68.594C110.682 68.594 110.19 68.816 109.818 69.26C109.446 69.704 109.23 70.334 109.17 71.15H113.292C113.292 70.646 113.22 70.202 113.076 69.818C112.932 69.434 112.71 69.134 112.41 68.918C112.122 68.702 111.75 68.594 111.294 68.594ZM123.217 71.618C123.157 71.39 123.097 71.156 123.037 70.916C122.977 70.676 122.917 70.448 122.857 70.232C122.809 70.016 122.767 69.812 122.731 69.62C122.695 69.428 122.665 69.26 122.641 69.116H122.569C122.557 69.26 122.527 69.434 122.479 69.638C122.443 69.83 122.401 70.04 122.353 70.268C122.305 70.484 122.251 70.712 122.191 70.952C122.131 71.18 122.071 71.414 122.011 71.654L120.571 76.982H118.339L115.873 67.28H117.835L118.987 72.392C119.071 72.728 119.143 73.07 119.203 73.418C119.275 73.754 119.341 74.078 119.401 74.39C119.461 74.69 119.497 74.954 119.509 75.182H119.581C119.605 75.026 119.635 74.84 119.671 74.624C119.719 74.396 119.767 74.162 119.815 73.922C119.863 73.682 119.911 73.448 119.959 73.22C120.019 72.992 120.073 72.794 120.121 72.626L121.561 67.28H123.703L125.089 72.626C125.161 72.866 125.233 73.142 125.305 73.454C125.377 73.766 125.443 74.072 125.503 74.372C125.563 74.672 125.599 74.936 125.611 75.164H125.665C125.689 74.96 125.725 74.708 125.773 74.408C125.833 74.108 125.905 73.784 125.989 73.436C126.073 73.088 126.151 72.74 126.223 72.392L127.411 67.28H129.337L126.853 76.982H124.585L123.217 71.618ZM140.672 65.642C140.096 65.642 139.574 65.756 139.106 65.984C138.65 66.2 138.26 66.524 137.936 66.956C137.624 67.388 137.384 67.91 137.216 68.522C137.048 69.134 136.964 69.824 136.964 70.592C136.964 71.6 137.102 72.476 137.378 73.22C137.654 73.952 138.068 74.516 138.62 74.912C139.172 75.308 139.856 75.506 140.672 75.506C141.2 75.506 141.704 75.458 142.184 75.362C142.664 75.254 143.15 75.116 143.642 74.948V76.622C143.162 76.814 142.67 76.952 142.166 77.036C141.674 77.132 141.098 77.18 140.438 77.18C139.19 77.18 138.158 76.91 137.342 76.37C136.526 75.83 135.914 75.062 135.506 74.066C135.098 73.07 134.894 71.906 134.894 70.574C134.894 69.602 135.02 68.714 135.272 67.91C135.524 67.094 135.896 66.392 136.388 65.804C136.88 65.216 137.486 64.766 138.206 64.454C138.926 64.13 139.748 63.968 140.672 63.968C141.296 63.968 141.908 64.04 142.508 64.184C143.108 64.316 143.642 64.508 144.11 64.76L143.408 66.38C143.012 66.188 142.58 66.02 142.112 65.876C141.656 65.72 141.176 65.642 140.672 65.642ZM154.167 72.14C154.167 72.944 154.065 73.658 153.861 74.282C153.657 74.906 153.363 75.434 152.979 75.866C152.607 76.298 152.151 76.628 151.611 76.856C151.071 77.072 150.465 77.18 149.793 77.18C149.181 77.18 148.611 77.072 148.083 76.856C147.555 76.628 147.099 76.298 146.715 75.866C146.331 75.434 146.031 74.906 145.815 74.282C145.611 73.658 145.509 72.938 145.509 72.122C145.509 71.054 145.683 70.148 146.031 69.404C146.379 68.66 146.877 68.096 147.525 67.712C148.185 67.316 148.965 67.118 149.865 67.118C150.705 67.118 151.449 67.316 152.097 67.712C152.745 68.096 153.249 68.66 153.609 69.404C153.981 70.148 154.167 71.06 154.167 72.14ZM147.525 72.14C147.525 72.86 147.603 73.484 147.759 74.012C147.927 74.528 148.179 74.924 148.515 75.2C148.863 75.476 149.301 75.614 149.829 75.614C150.369 75.614 150.807 75.476 151.143 75.2C151.491 74.924 151.743 74.528 151.899 74.012C152.067 73.484 152.151 72.86 152.151 72.14C152.151 71.396 152.067 70.772 151.899 70.268C151.731 69.764 151.479 69.38 151.143 69.116C150.807 68.84 150.363 68.702 149.811 68.702C149.007 68.702 148.425 69.002 148.065 69.602C147.705 70.202 147.525 71.048 147.525 72.14ZM161.136 67.118C162.192 67.118 163.002 67.4 163.566 67.964C164.142 68.528 164.43 69.434 164.43 70.682V77H162.486V70.952C162.486 70.196 162.336 69.632 162.036 69.26C161.748 68.876 161.298 68.684 160.686 68.684C159.786 68.684 159.168 68.978 158.832 69.566C158.496 70.154 158.328 71 158.328 72.104V77H156.384V67.298H157.914L158.184 68.594H158.292C158.496 68.258 158.742 67.982 159.03 67.766C159.318 67.55 159.642 67.388 160.002 67.28C160.362 67.172 160.74 67.118 161.136 67.118ZM170.544 75.632C170.796 75.632 171.042 75.608 171.282 75.56C171.522 75.512 171.732 75.458 171.912 75.398V76.838C171.708 76.934 171.438 77.012 171.102 77.072C170.778 77.144 170.436 77.18 170.076 77.18C169.572 77.18 169.11 77.09 168.69 76.91C168.27 76.73 167.934 76.418 167.682 75.974C167.43 75.53 167.304 74.912 167.304 74.12V68.756H166.062V67.892L167.394 67.172L168.06 65.12H169.266V67.298H171.84V68.756H169.266V74.084C169.266 74.612 169.386 75.002 169.626 75.254C169.866 75.506 170.172 75.632 170.544 75.632ZM177.388 67.118C178.528 67.118 179.386 67.388 179.962 67.928C180.55 68.456 180.844 69.29 180.844 70.43V77H179.458L179.08 75.65H179.008C178.732 75.998 178.456 76.286 178.18 76.514C177.916 76.742 177.604 76.91 177.244 77.018C176.896 77.126 176.464 77.18 175.948 77.18C175.408 77.18 174.922 77.078 174.49 76.874C174.058 76.658 173.716 76.334 173.464 75.902C173.212 75.458 173.086 74.906 173.086 74.246C173.086 73.262 173.434 72.512 174.13 71.996C174.838 71.48 175.912 71.198 177.352 71.15L178.9 71.096V70.556C178.9 69.836 178.75 69.332 178.45 69.044C178.162 68.756 177.754 68.612 177.226 68.612C176.782 68.612 176.344 68.684 175.912 68.828C175.48 68.972 175.06 69.146 174.652 69.35L174.058 67.964C174.502 67.724 175.006 67.526 175.57 67.37C176.146 67.202 176.752 67.118 177.388 67.118ZM177.73 72.374C176.746 72.422 176.062 72.608 175.678 72.932C175.294 73.244 175.102 73.688 175.102 74.264C175.102 74.768 175.234 75.134 175.498 75.362C175.774 75.59 176.128 75.704 176.56 75.704C177.22 75.704 177.772 75.494 178.216 75.074C178.672 74.654 178.9 74.024 178.9 73.184V72.338L177.73 72.374ZM187.286 77.18C186.434 77.18 185.684 77.006 185.036 76.658C184.4 76.31 183.902 75.77 183.542 75.038C183.194 74.294 183.02 73.352 183.02 72.212C183.02 71.012 183.212 70.04 183.596 69.296C183.98 68.552 184.502 68.006 185.162 67.658C185.822 67.298 186.578 67.118 187.43 67.118C187.934 67.118 188.414 67.178 188.87 67.298C189.338 67.406 189.722 67.532 190.022 67.676L189.428 69.206C189.128 69.086 188.804 68.978 188.456 68.882C188.108 68.786 187.778 68.738 187.466 68.738C186.914 68.738 186.458 68.87 186.098 69.134C185.75 69.386 185.486 69.77 185.306 70.286C185.126 70.79 185.036 71.426 185.036 72.194C185.036 72.926 185.126 73.544 185.306 74.048C185.486 74.552 185.75 74.936 186.098 75.2C186.458 75.452 186.89 75.578 187.394 75.578C187.886 75.578 188.324 75.518 188.708 75.398C189.104 75.278 189.47 75.122 189.806 74.93V76.586C189.47 76.79 189.104 76.94 188.708 77.036C188.312 77.132 187.838 77.18 187.286 77.18ZM195.347 75.632C195.599 75.632 195.845 75.608 196.085 75.56C196.325 75.512 196.535 75.458 196.715 75.398V76.838C196.511 76.934 196.241 77.012 195.905 77.072C195.581 77.144 195.239 77.18 194.879 77.18C194.375 77.18 193.913 77.09 193.493 76.91C193.073 76.73 192.737 76.418 192.485 75.974C192.233 75.53 192.107 74.912 192.107 74.12V68.756H190.865V67.892L192.197 67.172L192.863 65.12H194.069V67.298H196.643V68.756H194.069V74.084C194.069 74.612 194.189 75.002 194.429 75.254C194.669 75.506 194.975 75.632 195.347 75.632ZM204.692 74.264C204.692 74.9 204.548 75.434 204.26 75.866C203.972 76.298 203.552 76.628 203 76.856C202.448 77.072 201.77 77.18 200.966 77.18C200.33 77.18 199.772 77.126 199.292 77.018C198.824 76.922 198.392 76.778 197.996 76.586V74.912C198.416 75.116 198.896 75.302 199.436 75.47C199.976 75.626 200.492 75.704 200.984 75.704C201.62 75.704 202.082 75.59 202.37 75.362C202.658 75.134 202.802 74.828 202.802 74.444C202.802 74.228 202.742 74.036 202.622 73.868C202.514 73.688 202.304 73.508 201.992 73.328C201.68 73.136 201.23 72.92 200.642 72.68C200.066 72.428 199.58 72.182 199.184 71.942C198.8 71.69 198.5 71.396 198.284 71.06C198.08 70.712 197.978 70.268 197.978 69.728C197.978 68.888 198.302 68.246 198.95 67.802C199.598 67.346 200.444 67.118 201.488 67.118C202.064 67.118 202.598 67.178 203.09 67.298C203.582 67.406 204.062 67.574 204.53 67.802L203.936 69.26C203.66 69.128 203.378 69.02 203.09 68.936C202.814 68.84 202.538 68.762 202.262 68.702C201.986 68.642 201.71 68.612 201.434 68.612C200.918 68.612 200.528 68.702 200.264 68.882C200 69.062 199.868 69.314 199.868 69.638C199.868 69.878 199.928 70.082 200.048 70.25C200.18 70.418 200.402 70.586 200.714 70.754C201.038 70.922 201.482 71.12 202.046 71.348C202.61 71.576 203.09 71.81 203.486 72.05C203.882 72.29 204.182 72.584 204.386 72.932C204.59 73.28 204.692 73.724 204.692 74.264Z" fill="black"/>
<mask id="mask0_188_1386" style="mask-type:alpha" maskUnits="userSpaceOnUse" x="0" y="112" width="454" height="138">
<path d="M0.5 122C0.5 116.753 4.75329 112.5 10 112.5H444C449.247 112.5 453.5 116.753 453.5 122V240C453.5 245.247 449.247 249.5 444 249.5H9.99999C4.75329 249.5 0.5 245.247 0.5 240V122Z" fill="white" stroke="#E0E6ED"/>
</mask>
<g mask="url(#mask0_188_1386)">
<path d="M0 249.992V163.671C26.4833 163.671 49.1833 113.695 75.6667 113.695C102.15 113.695 124.85 163.671 151.333 163.671C177.817 163.671 200.517 131.868 227 131.868C253.483 131.868 276.183 168.214 302.667 168.214C329.15 168.214 351.85 159.127 378.333 159.127C404.817 159.127 427.517 186.387 454 186.387C454 186.387 454 186.387 454 249.992H0Z" fill="url(#paint0_linear_188_1386)"/>
<path d="M0 163.671C26.4833 163.671 49.1833 113.695 75.6667 113.695C102.15 113.695 124.85 163.671 151.333 163.671C177.817 163.671 200.517 131.868 227 131.868C253.483 131.868 276.183 168.214 302.667 168.214C329.15 168.214 351.85 159.127 378.333 159.127C404.817 159.127 427.517 186.387 454 186.387" stroke="#FFBC48" stroke-width="2"/>
</g>
</g>
</g>
<defs>
<filter id="filter0_d_188_1386" x="0" y="0" width="454" height="250" filterUnits="userSpaceOnUse" color-interpolation-filters="sRGB">
<feFlood flood-opacity="0" result="BackgroundImageFix"/>
<feColorMatrix in="SourceAlpha" type="matrix" values="0 0 0 0 0 0 0 0 0 0 0 0 0 0 0 0 0 0 127 0" result="hardAlpha"/>
<feOffset/>
<feComposite in2="hardAlpha" operator="out"/>
<feColorMatrix type="matrix" values="0 0 0 0 0 0 0 0 0 0 0 0 0 0 0 0 0 0 0.25 0"/>
<feBlend mode="normal" in2="BackgroundImageFix" result="effect1_dropShadow_188_1386"/>
<feBlend mode="normal" in="SourceGraphic" in2="effect1_dropShadow_188_1386" result="shape"/>
</filter>
<filter id="filter1_d_188_1386" x="0" y="0" width="454" height="250" filterUnits="userSpaceOnUse" color-interpolation-filters="sRGB">
<feFlood flood-opacity="0" result="BackgroundImageFix"/>
<feColorMatrix in="SourceAlpha" type="matrix" values="0 0 0 0 0 0 0 0 0 0 0 0 0 0 0 0 0 0 127 0" result="hardAlpha"/>
<feOffset/>
<feComposite in2="hardAlpha" operator="out"/>
<feColorMatrix type="matrix" values="0 0 0 0 0 0 0 0 0 0 0 0 0 0 0 0 0 0 0.25 0"/>
<feBlend mode="normal" in2="BackgroundImageFix" result="effect1_dropShadow_188_1386"/>
<feBlend mode="normal" in="SourceGraphic" in2="effect1_dropShadow_188_1386" result="shape"/>
</filter>
<linearGradient id="paint0_linear_188_1386" x1="0" y1="113.695" x2="0" y2="249.992" gradientUnits="userSpaceOnUse">
<stop stop-color="#B69B0E" stop-opacity="0.42"/>
<stop offset="1" stop-color="#B69B0E" stop-opacity="0.2"/>
</linearGradient>
<clipPath id="clip0_188_1386">
<rect width="454" height="250" rx="12" fill="white"/>
</clipPath>
</defs>
</svg>
