<svg width="454" height="250" viewBox="0 0 454 250" fill="none" xmlns="http://www.w3.org/2000/svg">
<g filter="url(#filter0_d_188_1374)">
<g clip-path="url(#clip0_188_1374)">
<g filter="url(#filter1_d_188_1374)">
<rect width="454" height="250" rx="10" fill="white"/>
</g>
<circle opacity="0.3" cx="444" cy="10" r="100" fill="#006FAD"/>
<circle opacity="0.6" cx="439" cy="15" r="75" fill="#006FAD"/>
<path d="M37.896 76H30.84V51.08C30.84 50.2587 30.84 49.4187 30.84 48.56C30.8773 47.7013 30.9147 46.8427 30.952 45.984C30.9893 45.088 31.0267 44.2667 31.064 43.52C30.6907 43.8933 30.224 44.3413 29.664 44.864C29.104 45.3493 28.5253 45.8533 27.928 46.376L23.448 49.96L19.92 45.592L32.016 36.016H37.896V76ZM64.3429 50.856C66.8815 50.856 69.1215 51.3227 71.0629 52.256C73.0042 53.1893 74.5162 54.552 75.5989 56.344C76.7189 58.0987 77.2789 60.264 77.2789 62.84C77.2789 65.6773 76.6815 68.1227 75.4869 70.176C74.2922 72.2293 72.5375 73.816 70.2229 74.936C67.9082 76.0187 65.0709 76.56 61.7109 76.56C59.6202 76.56 57.6602 76.3733 55.8309 76C54.0015 75.6267 52.4149 75.0853 51.0709 74.376V68.104C52.4522 68.8507 54.1135 69.4667 56.0549 69.952C57.9962 70.4373 59.8255 70.68 61.5429 70.68C63.3349 70.68 64.8655 70.4373 66.1349 69.952C67.4042 69.4293 68.3749 68.6453 69.0469 67.6C69.7189 66.5173 70.0549 65.1547 70.0549 63.512C70.0549 61.272 69.3455 59.5733 67.9269 58.416C66.5082 57.2587 64.3055 56.68 61.3189 56.68C60.2735 56.68 59.1349 56.7733 57.9029 56.96C56.7082 57.1467 55.7189 57.3333 54.9349 57.52L51.9109 55.84L53.4229 36.016H74.4789V42.176H59.6389L58.7989 51.416C59.4335 51.304 60.1802 51.192 61.0389 51.08C61.9349 50.9307 63.0362 50.856 64.3429 50.856Z" fill="black"/>
<path d="M99.768 65.642C99.192 65.642 98.67 65.756 98.202 65.984C97.746 66.2 97.356 66.524 97.032 66.956C96.72 67.388 96.48 67.91 96.312 68.522C96.144 69.134 96.06 69.824 96.06 70.592C96.06 71.6 96.198 72.476 96.474 73.22C96.75 73.952 97.164 74.516 97.716 74.912C98.268 75.308 98.952 75.506 99.768 75.506C100.296 75.506 100.8 75.458 101.28 75.362C101.76 75.254 102.246 75.116 102.738 74.948V76.622C102.258 76.814 101.766 76.952 101.262 77.036C100.77 77.132 100.194 77.18 99.534 77.18C98.286 77.18 97.254 76.91 96.438 76.37C95.622 75.83 95.01 75.062 94.602 74.066C94.194 73.07 93.99 71.906 93.99 70.574C93.99 69.602 94.116 68.714 94.368 67.91C94.62 67.094 94.992 66.392 95.484 65.804C95.976 65.216 96.582 64.766 97.302 64.454C98.022 64.13 98.844 63.968 99.768 63.968C100.392 63.968 101.004 64.04 101.604 64.184C102.204 64.316 102.738 64.508 103.206 64.76L102.504 66.38C102.108 66.188 101.676 66.02 101.208 65.876C100.752 65.72 100.272 65.642 99.768 65.642ZM107.052 77H105.108V63.32H107.052V77ZM111.746 67.298V77H109.784V67.298H111.746ZM110.792 63.608C111.08 63.608 111.332 63.692 111.548 63.86C111.764 64.028 111.872 64.31 111.872 64.706C111.872 65.09 111.764 65.372 111.548 65.552C111.332 65.72 111.08 65.804 110.792 65.804C110.48 65.804 110.216 65.72 110 65.552C109.784 65.372 109.676 65.09 109.676 64.706C109.676 64.31 109.784 64.028 110 63.86C110.216 63.692 110.48 63.608 110.792 63.608ZM118.239 77.18C117.387 77.18 116.637 77.006 115.989 76.658C115.353 76.31 114.855 75.77 114.495 75.038C114.147 74.294 113.973 73.352 113.973 72.212C113.973 71.012 114.165 70.04 114.549 69.296C114.933 68.552 115.455 68.006 116.115 67.658C116.775 67.298 117.531 67.118 118.383 67.118C118.887 67.118 119.367 67.178 119.823 67.298C120.291 67.406 120.675 67.532 120.975 67.676L120.381 69.206C120.081 69.086 119.757 68.978 119.409 68.882C119.061 68.786 118.731 68.738 118.419 68.738C117.867 68.738 117.411 68.87 117.051 69.134C116.703 69.386 116.439 69.77 116.259 70.286C116.079 70.79 115.989 71.426 115.989 72.194C115.989 72.926 116.079 73.544 116.259 74.048C116.439 74.552 116.703 74.936 117.051 75.2C117.411 75.452 117.843 75.578 118.347 75.578C118.839 75.578 119.277 75.518 119.661 75.398C120.057 75.278 120.423 75.122 120.759 74.93V76.586C120.423 76.79 120.057 76.94 119.661 77.036C119.265 77.132 118.791 77.18 118.239 77.18ZM124.806 70.16C124.806 70.412 124.794 70.7 124.77 71.024C124.746 71.348 124.722 71.648 124.698 71.924H124.77C124.842 71.804 124.938 71.66 125.058 71.492C125.19 71.312 125.322 71.132 125.454 70.952C125.598 70.772 125.73 70.616 125.85 70.484L128.568 67.298H130.8L127.182 71.456L131.034 77H128.73L125.85 72.662L124.806 73.598V77H122.862V63.32H124.806V70.16ZM141.299 77H139.319V65.822H135.755V64.148H144.845V65.822H141.299V77ZM148.414 66.974C148.414 67.274 148.402 67.574 148.378 67.874C148.366 68.174 148.348 68.42 148.324 68.612H148.432C148.624 68.276 148.858 68 149.134 67.784C149.422 67.568 149.74 67.406 150.088 67.298C150.448 67.19 150.814 67.136 151.186 67.136C151.894 67.136 152.494 67.262 152.986 67.514C153.49 67.754 153.868 68.138 154.12 68.666C154.384 69.182 154.516 69.854 154.516 70.682V77H152.554V70.952C152.554 70.196 152.41 69.632 152.122 69.26C151.834 68.876 151.384 68.684 150.772 68.684C150.184 68.684 149.716 68.816 149.368 69.08C149.02 69.344 148.774 69.734 148.63 70.25C148.486 70.754 148.414 71.378 148.414 72.122V77H146.47V63.32H148.414V66.974ZM161.818 67.118C161.974 67.118 162.148 67.13 162.34 67.154C162.532 67.166 162.694 67.184 162.826 67.208L162.628 68.99C162.496 68.954 162.346 68.924 162.178 68.9C162.01 68.876 161.842 68.864 161.674 68.864C161.35 68.864 161.038 68.936 160.738 69.08C160.438 69.212 160.168 69.41 159.928 69.674C159.688 69.926 159.496 70.238 159.352 70.61C159.208 70.982 159.136 71.408 159.136 71.888V77H157.192V67.298H158.722L158.974 69.026H159.082C159.262 68.678 159.484 68.36 159.748 68.072C160.024 67.784 160.336 67.556 160.684 67.388C161.032 67.208 161.41 67.118 161.818 67.118ZM172.29 72.14C172.29 72.944 172.188 73.658 171.984 74.282C171.78 74.906 171.486 75.434 171.102 75.866C170.73 76.298 170.274 76.628 169.734 76.856C169.194 77.072 168.588 77.18 167.916 77.18C167.304 77.18 166.734 77.072 166.206 76.856C165.678 76.628 165.222 76.298 164.838 75.866C164.454 75.434 164.154 74.906 163.938 74.282C163.734 73.658 163.632 72.938 163.632 72.122C163.632 71.054 163.806 70.148 164.154 69.404C164.502 68.66 165 68.096 165.648 67.712C166.308 67.316 167.088 67.118 167.988 67.118C168.828 67.118 169.572 67.316 170.22 67.712C170.868 68.096 171.372 68.66 171.732 69.404C172.104 70.148 172.29 71.06 172.29 72.14ZM165.648 72.14C165.648 72.86 165.726 73.484 165.882 74.012C166.05 74.528 166.302 74.924 166.638 75.2C166.986 75.476 167.424 75.614 167.952 75.614C168.492 75.614 168.93 75.476 169.266 75.2C169.614 74.924 169.866 74.528 170.022 74.012C170.19 73.484 170.274 72.86 170.274 72.14C170.274 71.396 170.19 70.772 170.022 70.268C169.854 69.764 169.602 69.38 169.266 69.116C168.93 68.84 168.486 68.702 167.934 68.702C167.13 68.702 166.548 69.002 166.188 69.602C165.828 70.202 165.648 71.048 165.648 72.14ZM182.481 67.298V77H180.951L180.681 75.722H180.573C180.393 76.058 180.147 76.334 179.835 76.55C179.535 76.766 179.205 76.922 178.845 77.018C178.485 77.126 178.113 77.18 177.729 77.18C177.021 77.18 176.421 77.06 175.929 76.82C175.449 76.568 175.077 76.184 174.813 75.668C174.561 75.14 174.435 74.468 174.435 73.652V67.298H176.397V73.364C176.397 74.12 176.541 74.684 176.829 75.056C177.117 75.428 177.567 75.614 178.179 75.614C178.779 75.614 179.247 75.482 179.583 75.218C179.931 74.954 180.177 74.57 180.321 74.066C180.465 73.55 180.537 72.932 180.537 72.212V67.298H182.481ZM188.362 67.118C188.95 67.118 189.472 67.238 189.928 67.478C190.396 67.718 190.792 68.084 191.116 68.576H191.188L191.404 67.298H193.006V77.126C193.006 78.038 192.85 78.806 192.538 79.43C192.226 80.054 191.752 80.522 191.116 80.834C190.48 81.158 189.676 81.32 188.704 81.32C188.032 81.32 187.42 81.272 186.868 81.176C186.328 81.08 185.824 80.93 185.356 80.726V79.052C185.668 79.22 186.004 79.358 186.364 79.466C186.724 79.586 187.102 79.67 187.498 79.718C187.906 79.778 188.326 79.808 188.758 79.808C189.502 79.808 190.072 79.58 190.468 79.124C190.876 78.68 191.08 78.05 191.08 77.234V76.91C191.08 76.754 191.086 76.55 191.098 76.298C191.11 76.034 191.122 75.842 191.134 75.722H191.062C190.762 76.226 190.384 76.598 189.928 76.838C189.484 77.066 188.956 77.18 188.344 77.18C187.216 77.18 186.328 76.742 185.68 75.866C185.032 74.978 184.708 73.748 184.708 72.176C184.708 71.12 184.852 70.22 185.14 69.476C185.44 68.72 185.86 68.138 186.4 67.73C186.952 67.322 187.606 67.118 188.362 67.118ZM188.83 68.702C188.374 68.702 187.99 68.84 187.678 69.116C187.366 69.38 187.126 69.77 186.958 70.286C186.802 70.802 186.724 71.438 186.724 72.194C186.724 73.322 186.904 74.18 187.264 74.768C187.624 75.356 188.152 75.65 188.848 75.65C189.256 75.65 189.604 75.59 189.892 75.47C190.18 75.35 190.414 75.164 190.594 74.912C190.786 74.66 190.924 74.342 191.008 73.958C191.104 73.562 191.152 73.088 191.152 72.536V72.176C191.152 71.348 191.068 70.682 190.9 70.178C190.744 69.662 190.492 69.29 190.144 69.062C189.808 68.822 189.37 68.702 188.83 68.702ZM197.685 66.974C197.685 67.274 197.673 67.574 197.649 67.874C197.637 68.174 197.619 68.42 197.595 68.612H197.703C197.895 68.276 198.129 68 198.405 67.784C198.693 67.568 199.011 67.406 199.359 67.298C199.719 67.19 200.085 67.136 200.457 67.136C201.165 67.136 201.765 67.262 202.257 67.514C202.761 67.754 203.139 68.138 203.391 68.666C203.655 69.182 203.787 69.854 203.787 70.682V77H201.825V70.952C201.825 70.196 201.681 69.632 201.393 69.26C201.105 68.876 200.655 68.684 200.043 68.684C199.455 68.684 198.987 68.816 198.639 69.08C198.291 69.344 198.045 69.734 197.901 70.25C197.757 70.754 197.685 71.378 197.685 72.122V77H195.741V63.32H197.685V66.974ZM214.53 64.148C215.562 64.148 216.414 64.286 217.086 64.562C217.758 64.838 218.256 65.252 218.58 65.804C218.916 66.344 219.084 67.028 219.084 67.856C219.084 68.516 218.97 69.074 218.742 69.53C218.526 69.974 218.238 70.34 217.878 70.628C217.53 70.904 217.152 71.126 216.744 71.294L220.146 77H217.878L215.016 71.798H213.054V77H211.056V64.148H214.53ZM214.44 65.804H213.054V70.178H214.476C215.064 70.178 215.544 70.094 215.916 69.926C216.3 69.758 216.582 69.506 216.762 69.17C216.954 68.834 217.05 68.42 217.05 67.928C217.05 67.412 216.954 67.004 216.762 66.704C216.582 66.392 216.294 66.164 215.898 66.02C215.514 65.876 215.028 65.804 214.44 65.804ZM225.323 67.118C226.463 67.118 227.321 67.388 227.897 67.928C228.485 68.456 228.779 69.29 228.779 70.43V77H227.393L227.015 75.65H226.943C226.667 75.998 226.391 76.286 226.115 76.514C225.851 76.742 225.539 76.91 225.179 77.018C224.831 77.126 224.399 77.18 223.883 77.18C223.343 77.18 222.857 77.078 222.425 76.874C221.993 76.658 221.651 76.334 221.399 75.902C221.147 75.458 221.021 74.906 221.021 74.246C221.021 73.262 221.369 72.512 222.065 71.996C222.773 71.48 223.847 71.198 225.287 71.15L226.835 71.096V70.556C226.835 69.836 226.685 69.332 226.385 69.044C226.097 68.756 225.689 68.612 225.161 68.612C224.717 68.612 224.279 68.684 223.847 68.828C223.415 68.972 222.995 69.146 222.587 69.35L221.993 67.964C222.437 67.724 222.941 67.526 223.505 67.37C224.081 67.202 224.687 67.118 225.323 67.118ZM225.665 72.374C224.681 72.422 223.997 72.608 223.613 72.932C223.229 73.244 223.037 73.688 223.037 74.264C223.037 74.768 223.169 75.134 223.433 75.362C223.709 75.59 224.063 75.704 224.495 75.704C225.155 75.704 225.707 75.494 226.151 75.074C226.607 74.654 226.835 74.024 226.835 73.184V72.338L225.665 72.374ZM234.898 75.632C235.15 75.632 235.396 75.608 235.636 75.56C235.876 75.512 236.086 75.458 236.266 75.398V76.838C236.062 76.934 235.792 77.012 235.456 77.072C235.132 77.144 234.79 77.18 234.43 77.18C233.926 77.18 233.464 77.09 233.044 76.91C232.624 76.73 232.288 76.418 232.036 75.974C231.784 75.53 231.658 74.912 231.658 74.12V68.756H230.416V67.892L231.748 67.172L232.414 65.12H233.62V67.298H236.194V68.756H233.62V74.084C233.62 74.612 233.74 75.002 233.98 75.254C234.22 75.506 234.526 75.632 234.898 75.632ZM240.031 67.298V77H238.069V67.298H240.031ZM239.077 63.608C239.365 63.608 239.617 63.692 239.833 63.86C240.049 64.028 240.157 64.31 240.157 64.706C240.157 65.09 240.049 65.372 239.833 65.552C239.617 65.72 239.365 65.804 239.077 65.804C238.765 65.804 238.501 65.72 238.285 65.552C238.069 65.372 237.961 65.09 237.961 64.706C237.961 64.31 238.069 64.028 238.285 63.86C238.501 63.692 238.765 63.608 239.077 63.608ZM250.917 72.14C250.917 72.944 250.815 73.658 250.611 74.282C250.407 74.906 250.113 75.434 249.729 75.866C249.357 76.298 248.901 76.628 248.361 76.856C247.821 77.072 247.215 77.18 246.543 77.18C245.931 77.18 245.361 77.072 244.833 76.856C244.305 76.628 243.849 76.298 243.465 75.866C243.081 75.434 242.781 74.906 242.565 74.282C242.361 73.658 242.259 72.938 242.259 72.122C242.259 71.054 242.433 70.148 242.781 69.404C243.129 68.66 243.627 68.096 244.275 67.712C244.935 67.316 245.715 67.118 246.615 67.118C247.455 67.118 248.199 67.316 248.847 67.712C249.495 68.096 249.999 68.66 250.359 69.404C250.731 70.148 250.917 71.06 250.917 72.14ZM244.275 72.14C244.275 72.86 244.353 73.484 244.509 74.012C244.677 74.528 244.929 74.924 245.265 75.2C245.613 75.476 246.051 75.614 246.579 75.614C247.119 75.614 247.557 75.476 247.893 75.2C248.241 74.924 248.493 74.528 248.649 74.012C248.817 73.484 248.901 72.86 248.901 72.14C248.901 71.396 248.817 70.772 248.649 70.268C248.481 69.764 248.229 69.38 247.893 69.116C247.557 68.84 247.113 68.702 246.561 68.702C245.757 68.702 245.175 69.002 244.815 69.602C244.455 70.202 244.275 71.048 244.275 72.14Z" fill="black"/>
<mask id="mask0_188_1374" style="mask-type:alpha" maskUnits="userSpaceOnUse" x="0" y="112" width="454" height="138">
<path d="M0.5 122C0.5 116.753 4.75329 112.5 10 112.5H444C449.247 112.5 453.5 116.753 453.5 122V240C453.5 245.247 449.247 249.5 444 249.5H9.99999C4.75329 249.5 0.5 245.247 0.5 240V122Z" fill="white" stroke="#E0E6ED"/>
</mask>
<g mask="url(#mask0_188_1374)">
<path d="M0 249.992V163.671C26.4833 163.671 49.1833 113.695 75.6667 113.695C102.15 113.695 124.85 163.671 151.333 163.671C177.817 163.671 200.517 131.868 227 131.868C253.483 131.868 276.183 168.214 302.667 168.214C329.15 168.214 351.85 159.127 378.333 159.127C404.817 159.127 427.517 186.387 454 186.387C454 186.387 454 186.387 454 249.992H0Z" fill="url(#paint0_linear_188_1374)"/>
<path d="M0 163.671C26.4833 163.671 49.1833 113.695 75.6667 113.695C102.15 113.695 124.85 163.671 151.333 163.671C177.817 163.671 200.517 131.868 227 131.868C253.483 131.868 276.183 168.214 302.667 168.214C329.15 168.214 351.85 159.127 378.333 159.127C404.817 159.127 427.517 186.387 454 186.387" stroke="#006FAD" stroke-width="2"/>
</g>
</g>
</g>
<defs>
<filter id="filter0_d_188_1374" x="0" y="0" width="454" height="250" filterUnits="userSpaceOnUse" color-interpolation-filters="sRGB">
<feFlood flood-opacity="0" result="BackgroundImageFix"/>
<feColorMatrix in="SourceAlpha" type="matrix" values="0 0 0 0 0 0 0 0 0 0 0 0 0 0 0 0 0 0 127 0" result="hardAlpha"/>
<feOffset/>
<feComposite in2="hardAlpha" operator="out"/>
<feColorMatrix type="matrix" values="0 0 0 0 0 0 0 0 0 0 0 0 0 0 0 0 0 0 0.25 0"/>
<feBlend mode="normal" in2="BackgroundImageFix" result="effect1_dropShadow_188_1374"/>
<feBlend mode="normal" in="SourceGraphic" in2="effect1_dropShadow_188_1374" result="shape"/>
</filter>
<filter id="filter1_d_188_1374" x="0" y="0" width="454" height="250" filterUnits="userSpaceOnUse" color-interpolation-filters="sRGB">
<feFlood flood-opacity="0" result="BackgroundImageFix"/>
<feColorMatrix in="SourceAlpha" type="matrix" values="0 0 0 0 0 0 0 0 0 0 0 0 0 0 0 0 0 0 127 0" result="hardAlpha"/>
<feOffset/>
<feComposite in2="hardAlpha" operator="out"/>
<feColorMatrix type="matrix" values="0 0 0 0 0 0 0 0 0 0 0 0 0 0 0 0 0 0 0.25 0"/>
<feBlend mode="normal" in2="BackgroundImageFix" result="effect1_dropShadow_188_1374"/>
<feBlend mode="normal" in="SourceGraphic" in2="effect1_dropShadow_188_1374" result="shape"/>
</filter>
<linearGradient id="paint0_linear_188_1374" x1="0" y1="113.695" x2="0" y2="249.992" gradientUnits="userSpaceOnUse">
<stop stop-color="#006FAD" stop-opacity="0.42"/>
<stop offset="1" stop-color="#006FAD" stop-opacity="0.2"/>
</linearGradient>
<clipPath id="clip0_188_1374">
<rect width="454" height="250" rx="12" fill="white"/>
</clipPath>
</defs>
</svg>
