<svg width="454" height="250" viewBox="0 0 454 250" fill="none" xmlns="http://www.w3.org/2000/svg">
<g filter="url(#filter0_d_188_1362)">
<g clip-path="url(#clip0_188_1362)">
<g filter="url(#filter1_d_188_1362)">
<rect width="454" height="250" rx="10" fill="white"/>
</g>
<circle opacity="0.3" cx="444" cy="10" r="100" fill="#05A315"/>
<circle opacity="0.6" cx="439" cy="15" r="75" fill="#05A315"/>
<path d="M37.896 76H30.84V51.08C30.84 50.2587 30.84 49.4187 30.84 48.56C30.8773 47.7013 30.9147 46.8427 30.952 45.984C30.9893 45.088 31.0267 44.2667 31.064 43.52C30.6907 43.8933 30.224 44.3413 29.664 44.864C29.104 45.3493 28.5253 45.8533 27.928 46.376L23.448 49.96L19.92 45.592L32.016 36.016H37.896V76ZM64.3429 50.856C66.8815 50.856 69.1215 51.3227 71.0629 52.256C73.0042 53.1893 74.5162 54.552 75.5989 56.344C76.7189 58.0987 77.2789 60.264 77.2789 62.84C77.2789 65.6773 76.6815 68.1227 75.4869 70.176C74.2922 72.2293 72.5375 73.816 70.2229 74.936C67.9082 76.0187 65.0709 76.56 61.7109 76.56C59.6202 76.56 57.6602 76.3733 55.8309 76C54.0015 75.6267 52.4149 75.0853 51.0709 74.376V68.104C52.4522 68.8507 54.1135 69.4667 56.0549 69.952C57.9962 70.4373 59.8255 70.68 61.5429 70.68C63.3349 70.68 64.8655 70.4373 66.1349 69.952C67.4042 69.4293 68.3749 68.6453 69.0469 67.6C69.7189 66.5173 70.0549 65.1547 70.0549 63.512C70.0549 61.272 69.3455 59.5733 67.9269 58.416C66.5082 57.2587 64.3055 56.68 61.3189 56.68C60.2735 56.68 59.1349 56.7733 57.9029 56.96C56.7082 57.1467 55.7189 57.3333 54.9349 57.52L51.9109 55.84L53.4229 36.016H74.4789V42.176H59.6389L58.7989 51.416C59.4335 51.304 60.1802 51.192 61.0389 51.08C61.9349 50.9307 63.0362 50.856 64.3429 50.856Z" fill="black"/>
<path d="M94.566 77V64.148H96.564V75.326H101.676V77H94.566ZM105.488 67.298V77H103.526V67.298H105.488ZM104.534 63.608C104.822 63.608 105.074 63.692 105.29 63.86C105.506 64.028 105.614 64.31 105.614 64.706C105.614 65.09 105.506 65.372 105.29 65.552C105.074 65.72 104.822 65.804 104.534 65.804C104.222 65.804 103.958 65.72 103.742 65.552C103.526 65.372 103.418 65.09 103.418 64.706C103.418 64.31 103.526 64.028 103.742 63.86C103.958 63.692 104.222 63.608 104.534 63.608ZM112.972 67.118C114.028 67.118 114.838 67.4 115.402 67.964C115.978 68.528 116.266 69.434 116.266 70.682V77H114.322V70.952C114.322 70.196 114.172 69.632 113.872 69.26C113.584 68.876 113.134 68.684 112.522 68.684C111.622 68.684 111.004 68.978 110.668 69.566C110.332 70.154 110.164 71 110.164 72.104V77H108.22V67.298H109.75L110.02 68.594H110.128C110.332 68.258 110.578 67.982 110.866 67.766C111.154 67.55 111.478 67.388 111.838 67.28C112.198 67.172 112.576 67.118 112.972 67.118ZM120.886 70.16C120.886 70.412 120.874 70.7 120.85 71.024C120.826 71.348 120.802 71.648 120.778 71.924H120.85C120.922 71.804 121.018 71.66 121.138 71.492C121.27 71.312 121.402 71.132 121.534 70.952C121.678 70.772 121.81 70.616 121.93 70.484L124.648 67.298H126.88L123.262 71.456L127.114 77H124.81L121.93 72.662L120.886 73.598V77H118.942V63.32H120.886V70.16ZM138.37 65.642C137.794 65.642 137.272 65.756 136.804 65.984C136.348 66.2 135.958 66.524 135.634 66.956C135.322 67.388 135.082 67.91 134.914 68.522C134.746 69.134 134.662 69.824 134.662 70.592C134.662 71.6 134.8 72.476 135.076 73.22C135.352 73.952 135.766 74.516 136.318 74.912C136.87 75.308 137.554 75.506 138.37 75.506C138.898 75.506 139.402 75.458 139.882 75.362C140.362 75.254 140.848 75.116 141.34 74.948V76.622C140.86 76.814 140.368 76.952 139.864 77.036C139.372 77.132 138.796 77.18 138.136 77.18C136.888 77.18 135.856 76.91 135.04 76.37C134.224 75.83 133.612 75.062 133.204 74.066C132.796 73.07 132.592 71.906 132.592 70.574C132.592 69.602 132.718 68.714 132.97 67.91C133.222 67.094 133.594 66.392 134.086 65.804C134.578 65.216 135.184 64.766 135.904 64.454C136.624 64.13 137.446 63.968 138.37 63.968C138.994 63.968 139.606 64.04 140.206 64.184C140.806 64.316 141.34 64.508 141.808 64.76L141.106 66.38C140.71 66.188 140.278 66.02 139.81 65.876C139.354 65.72 138.874 65.642 138.37 65.642ZM145.654 77H143.71V63.32H145.654V77ZM150.348 67.298V77H148.386V67.298H150.348ZM149.394 63.608C149.682 63.608 149.934 63.692 150.15 63.86C150.366 64.028 150.474 64.31 150.474 64.706C150.474 65.09 150.366 65.372 150.15 65.552C149.934 65.72 149.682 65.804 149.394 65.804C149.082 65.804 148.818 65.72 148.602 65.552C148.386 65.372 148.278 65.09 148.278 64.706C148.278 64.31 148.386 64.028 148.602 63.86C148.818 63.692 149.082 63.608 149.394 63.608ZM156.841 77.18C155.989 77.18 155.239 77.006 154.591 76.658C153.955 76.31 153.457 75.77 153.097 75.038C152.749 74.294 152.575 73.352 152.575 72.212C152.575 71.012 152.767 70.04 153.151 69.296C153.535 68.552 154.057 68.006 154.717 67.658C155.377 67.298 156.133 67.118 156.985 67.118C157.489 67.118 157.969 67.178 158.425 67.298C158.893 67.406 159.277 67.532 159.577 67.676L158.983 69.206C158.683 69.086 158.359 68.978 158.011 68.882C157.663 68.786 157.333 68.738 157.021 68.738C156.469 68.738 156.013 68.87 155.653 69.134C155.305 69.386 155.041 69.77 154.861 70.286C154.681 70.79 154.591 71.426 154.591 72.194C154.591 72.926 154.681 73.544 154.861 74.048C155.041 74.552 155.305 74.936 155.653 75.2C156.013 75.452 156.445 75.578 156.949 75.578C157.441 75.578 157.879 75.518 158.263 75.398C158.659 75.278 159.025 75.122 159.361 74.93V76.586C159.025 76.79 158.659 76.94 158.263 77.036C157.867 77.132 157.393 77.18 156.841 77.18ZM163.408 70.16C163.408 70.412 163.396 70.7 163.372 71.024C163.348 71.348 163.324 71.648 163.3 71.924H163.372C163.444 71.804 163.54 71.66 163.66 71.492C163.792 71.312 163.924 71.132 164.056 70.952C164.2 70.772 164.332 70.616 164.452 70.484L167.17 67.298H169.402L165.784 71.456L169.636 77H167.332L164.452 72.662L163.408 73.598V77H161.464V63.32H163.408V70.16ZM177.271 74.264C177.271 74.9 177.127 75.434 176.839 75.866C176.551 76.298 176.131 76.628 175.579 76.856C175.027 77.072 174.349 77.18 173.545 77.18C172.909 77.18 172.351 77.126 171.871 77.018C171.403 76.922 170.971 76.778 170.575 76.586V74.912C170.995 75.116 171.475 75.302 172.015 75.47C172.555 75.626 173.071 75.704 173.563 75.704C174.199 75.704 174.661 75.59 174.949 75.362C175.237 75.134 175.381 74.828 175.381 74.444C175.381 74.228 175.321 74.036 175.201 73.868C175.093 73.688 174.883 73.508 174.571 73.328C174.259 73.136 173.809 72.92 173.221 72.68C172.645 72.428 172.159 72.182 171.763 71.942C171.379 71.69 171.079 71.396 170.863 71.06C170.659 70.712 170.557 70.268 170.557 69.728C170.557 68.888 170.881 68.246 171.529 67.802C172.177 67.346 173.023 67.118 174.067 67.118C174.643 67.118 175.177 67.178 175.669 67.298C176.161 67.406 176.641 67.574 177.109 67.802L176.515 69.26C176.239 69.128 175.957 69.02 175.669 68.936C175.393 68.84 175.117 68.762 174.841 68.702C174.565 68.642 174.289 68.612 174.013 68.612C173.497 68.612 173.107 68.702 172.843 68.882C172.579 69.062 172.447 69.314 172.447 69.638C172.447 69.878 172.507 70.082 172.627 70.25C172.759 70.418 172.981 70.586 173.293 70.754C173.617 70.922 174.061 71.12 174.625 71.348C175.189 71.576 175.669 71.81 176.065 72.05C176.461 72.29 176.761 72.584 176.965 72.932C177.169 73.28 177.271 73.724 177.271 74.264Z" fill="black"/>
<mask id="mask0_188_1362" style="mask-type:alpha" maskUnits="userSpaceOnUse" x="0" y="112" width="454" height="138">
<path d="M0.5 122C0.5 116.753 4.75329 112.5 10 112.5H444C449.247 112.5 453.5 116.753 453.5 122V240C453.5 245.247 449.247 249.5 444 249.5H9.99999C4.75329 249.5 0.5 245.247 0.5 240V122Z" fill="white" stroke="#E0E6ED"/>
</mask>
<g mask="url(#mask0_188_1362)">
<path d="M0 249.992V163.671C26.4833 163.671 49.1833 113.695 75.6667 113.695C102.15 113.695 124.85 163.671 151.333 163.671C177.817 163.671 200.517 131.868 227 131.868C253.483 131.868 276.183 168.214 302.667 168.214C329.15 168.214 351.85 159.127 378.333 159.127C404.817 159.127 427.517 186.387 454 186.387C454 186.387 454 186.387 454 249.992H0Z" fill="url(#paint0_linear_188_1362)"/>
<path d="M0 163.671C26.4833 163.671 49.1833 113.695 75.6667 113.695C102.15 113.695 124.85 163.671 151.333 163.671C177.817 163.671 200.517 131.868 227 131.868C253.483 131.868 276.183 168.214 302.667 168.214C329.15 168.214 351.85 159.127 378.333 159.127C404.817 159.127 427.517 186.387 454 186.387" stroke="#05A315" stroke-width="2"/>
</g>
</g>
</g>
<defs>
<filter id="filter0_d_188_1362" x="0" y="0" width="454" height="250" filterUnits="userSpaceOnUse" color-interpolation-filters="sRGB">
<feFlood flood-opacity="0" result="BackgroundImageFix"/>
<feColorMatrix in="SourceAlpha" type="matrix" values="0 0 0 0 0 0 0 0 0 0 0 0 0 0 0 0 0 0 127 0" result="hardAlpha"/>
<feOffset/>
<feComposite in2="hardAlpha" operator="out"/>
<feColorMatrix type="matrix" values="0 0 0 0 0 0 0 0 0 0 0 0 0 0 0 0 0 0 0.25 0"/>
<feBlend mode="normal" in2="BackgroundImageFix" result="effect1_dropShadow_188_1362"/>
<feBlend mode="normal" in="SourceGraphic" in2="effect1_dropShadow_188_1362" result="shape"/>
</filter>
<filter id="filter1_d_188_1362" x="0" y="0" width="454" height="250" filterUnits="userSpaceOnUse" color-interpolation-filters="sRGB">
<feFlood flood-opacity="0" result="BackgroundImageFix"/>
<feColorMatrix in="SourceAlpha" type="matrix" values="0 0 0 0 0 0 0 0 0 0 0 0 0 0 0 0 0 0 127 0" result="hardAlpha"/>
<feOffset/>
<feComposite in2="hardAlpha" operator="out"/>
<feColorMatrix type="matrix" values="0 0 0 0 0 0 0 0 0 0 0 0 0 0 0 0 0 0 0.25 0"/>
<feBlend mode="normal" in2="BackgroundImageFix" result="effect1_dropShadow_188_1362"/>
<feBlend mode="normal" in="SourceGraphic" in2="effect1_dropShadow_188_1362" result="shape"/>
</filter>
<linearGradient id="paint0_linear_188_1362" x1="0" y1="113.695" x2="0" y2="249.992" gradientUnits="userSpaceOnUse">
<stop stop-color="#1A6D1E" stop-opacity="0.42"/>
<stop offset="1" stop-color="#1A6D1E" stop-opacity="0.2"/>
</linearGradient>
<clipPath id="clip0_188_1362">
<rect width="454" height="250" rx="12" fill="white"/>
</clipPath>
</defs>
</svg>
