<svg width="454" height="250" viewBox="0 0 454 250" fill="none" xmlns="http://www.w3.org/2000/svg">
<g filter="url(#filter0_d_188_1350)">
<g clip-path="url(#clip0_188_1350)">
<g filter="url(#filter1_d_188_1350)">
<rect width="454" height="250" rx="10" fill="white"/>
</g>
<circle opacity="0.3" cx="444" cy="10" r="100" fill="#652DBF"/>
<circle opacity="0.6" cx="439" cy="15" r="75" fill="#652DBF"/>
<path d="M37.896 76H30.84V51.08C30.84 50.2587 30.84 49.4187 30.84 48.56C30.8773 47.7013 30.9147 46.8427 30.952 45.984C30.9893 45.088 31.0267 44.2667 31.064 43.52C30.6907 43.8933 30.224 44.3413 29.664 44.864C29.104 45.3493 28.5253 45.8533 27.928 46.376L23.448 49.96L19.92 45.592L32.016 36.016H37.896V76ZM64.3429 50.856C66.8815 50.856 69.1215 51.3227 71.0629 52.256C73.0042 53.1893 74.5162 54.552 75.5989 56.344C76.7189 58.0987 77.2789 60.264 77.2789 62.84C77.2789 65.6773 76.6815 68.1227 75.4869 70.176C74.2922 72.2293 72.5375 73.816 70.2229 74.936C67.9082 76.0187 65.0709 76.56 61.7109 76.56C59.6202 76.56 57.6602 76.3733 55.8309 76C54.0015 75.6267 52.4149 75.0853 51.0709 74.376V68.104C52.4522 68.8507 54.1135 69.4667 56.0549 69.952C57.9962 70.4373 59.8255 70.68 61.5429 70.68C63.3349 70.68 64.8655 70.4373 66.1349 69.952C67.4042 69.4293 68.3749 68.6453 69.0469 67.6C69.7189 66.5173 70.0549 65.1547 70.0549 63.512C70.0549 61.272 69.3455 59.5733 67.9269 58.416C66.5082 57.2587 64.3055 56.68 61.3189 56.68C60.2735 56.68 59.1349 56.7733 57.9029 56.96C56.7082 57.1467 55.7189 57.3333 54.9349 57.52L51.9109 55.84L53.4229 36.016H74.4789V42.176H59.6389L58.7989 51.416C59.4335 51.304 60.1802 51.192 61.0389 51.08C61.9349 50.9307 63.0362 50.856 64.3429 50.856Z" fill="black"/>
<path d="M98.04 64.148C99.612 64.148 100.758 64.49 101.478 65.174C102.21 65.846 102.576 66.788 102.576 68C102.576 68.54 102.492 69.056 102.324 69.548C102.168 70.04 101.904 70.484 101.532 70.88C101.172 71.264 100.686 71.57 100.074 71.798C99.462 72.014 98.712 72.122 97.824 72.122H96.564V77H94.566V64.148H98.04ZM97.932 65.786H96.564V70.484H97.608C98.256 70.484 98.796 70.406 99.228 70.25C99.66 70.082 99.984 69.824 100.2 69.476C100.428 69.116 100.542 68.648 100.542 68.072C100.542 67.304 100.332 66.734 99.912 66.362C99.492 65.978 98.832 65.786 97.932 65.786ZM109.383 67.118C109.539 67.118 109.713 67.13 109.905 67.154C110.097 67.166 110.259 67.184 110.391 67.208L110.193 68.99C110.061 68.954 109.911 68.924 109.743 68.9C109.575 68.876 109.407 68.864 109.239 68.864C108.915 68.864 108.603 68.936 108.303 69.08C108.003 69.212 107.733 69.41 107.493 69.674C107.253 69.926 107.061 70.238 106.917 70.61C106.773 70.982 106.701 71.408 106.701 71.888V77H104.757V67.298H106.287L106.539 69.026H106.647C106.827 68.678 107.049 68.36 107.313 68.072C107.589 67.784 107.901 67.556 108.249 67.388C108.597 67.208 108.975 67.118 109.383 67.118ZM119.854 72.14C119.854 72.944 119.752 73.658 119.548 74.282C119.344 74.906 119.05 75.434 118.666 75.866C118.294 76.298 117.838 76.628 117.298 76.856C116.758 77.072 116.152 77.18 115.48 77.18C114.868 77.18 114.298 77.072 113.77 76.856C113.242 76.628 112.786 76.298 112.402 75.866C112.018 75.434 111.718 74.906 111.502 74.282C111.298 73.658 111.196 72.938 111.196 72.122C111.196 71.054 111.37 70.148 111.718 69.404C112.066 68.66 112.564 68.096 113.212 67.712C113.872 67.316 114.652 67.118 115.552 67.118C116.392 67.118 117.136 67.316 117.784 67.712C118.432 68.096 118.936 68.66 119.296 69.404C119.668 70.148 119.854 71.06 119.854 72.14ZM113.212 72.14C113.212 72.86 113.29 73.484 113.446 74.012C113.614 74.528 113.866 74.924 114.202 75.2C114.55 75.476 114.988 75.614 115.516 75.614C116.056 75.614 116.494 75.476 116.83 75.2C117.178 74.924 117.43 74.528 117.586 74.012C117.754 73.484 117.838 72.86 117.838 72.14C117.838 71.396 117.754 70.772 117.586 70.268C117.418 69.764 117.166 69.38 116.83 69.116C116.494 68.84 116.05 68.702 115.498 68.702C114.694 68.702 114.112 69.002 113.752 69.602C113.392 70.202 113.212 71.048 113.212 72.14ZM125.185 77.18C124.105 77.18 123.229 76.76 122.557 75.92C121.897 75.08 121.567 73.832 121.567 72.176C121.567 70.508 121.903 69.248 122.575 68.396C123.247 67.544 124.129 67.118 125.221 67.118C125.689 67.118 126.091 67.184 126.427 67.316C126.763 67.436 127.057 67.604 127.309 67.82C127.561 68.036 127.771 68.276 127.939 68.54H128.047C128.023 68.372 127.993 68.132 127.957 67.82C127.933 67.496 127.921 67.208 127.921 66.956V63.32H129.865V77H128.335L127.993 75.704H127.921C127.753 75.98 127.543 76.232 127.291 76.46C127.039 76.676 126.739 76.85 126.391 76.982C126.055 77.114 125.653 77.18 125.185 77.18ZM125.707 75.614C126.547 75.614 127.135 75.356 127.471 74.84C127.819 74.312 127.993 73.526 127.993 72.482V72.194C127.993 71.054 127.831 70.184 127.507 69.584C127.183 68.984 126.577 68.684 125.689 68.684C124.993 68.684 124.465 69.002 124.105 69.638C123.745 70.262 123.565 71.12 123.565 72.212C123.565 73.304 123.745 74.144 124.105 74.732C124.465 75.32 124.999 75.614 125.707 75.614ZM140.574 67.298V77H139.044L138.774 75.722H138.666C138.486 76.058 138.24 76.334 137.928 76.55C137.628 76.766 137.298 76.922 136.938 77.018C136.578 77.126 136.206 77.18 135.822 77.18C135.114 77.18 134.514 77.06 134.022 76.82C133.542 76.568 133.17 76.184 132.906 75.668C132.654 75.14 132.528 74.468 132.528 73.652V67.298H134.49V73.364C134.49 74.12 134.634 74.684 134.922 75.056C135.21 75.428 135.66 75.614 136.272 75.614C136.872 75.614 137.34 75.482 137.676 75.218C138.024 74.954 138.27 74.57 138.414 74.066C138.558 73.55 138.63 72.932 138.63 72.212V67.298H140.574ZM147.068 77.18C146.216 77.18 145.466 77.006 144.818 76.658C144.182 76.31 143.684 75.77 143.324 75.038C142.976 74.294 142.802 73.352 142.802 72.212C142.802 71.012 142.994 70.04 143.378 69.296C143.762 68.552 144.284 68.006 144.944 67.658C145.604 67.298 146.36 67.118 147.212 67.118C147.716 67.118 148.196 67.178 148.652 67.298C149.12 67.406 149.504 67.532 149.804 67.676L149.21 69.206C148.91 69.086 148.586 68.978 148.238 68.882C147.89 68.786 147.56 68.738 147.248 68.738C146.696 68.738 146.24 68.87 145.88 69.134C145.532 69.386 145.268 69.77 145.088 70.286C144.908 70.79 144.818 71.426 144.818 72.194C144.818 72.926 144.908 73.544 145.088 74.048C145.268 74.552 145.532 74.936 145.88 75.2C146.24 75.452 146.672 75.578 147.176 75.578C147.668 75.578 148.106 75.518 148.49 75.398C148.886 75.278 149.252 75.122 149.588 74.93V76.586C149.252 76.79 148.886 76.94 148.49 77.036C148.094 77.132 147.62 77.18 147.068 77.18ZM155.128 75.632C155.38 75.632 155.626 75.608 155.866 75.56C156.106 75.512 156.316 75.458 156.496 75.398V76.838C156.292 76.934 156.022 77.012 155.686 77.072C155.362 77.144 155.02 77.18 154.66 77.18C154.156 77.18 153.694 77.09 153.274 76.91C152.854 76.73 152.518 76.418 152.266 75.974C152.014 75.53 151.888 74.912 151.888 74.12V68.756H150.646V67.892L151.978 67.172L152.644 65.12H153.85V67.298H156.424V68.756H153.85V74.084C153.85 74.612 153.97 75.002 154.21 75.254C154.45 75.506 154.756 75.632 155.128 75.632ZM171.892 64.148L167.662 77H165.538L161.326 64.148H163.432L165.898 72.212C165.994 72.5 166.084 72.812 166.168 73.148C166.264 73.472 166.348 73.796 166.42 74.12C166.504 74.444 166.564 74.75 166.6 75.038C166.648 74.75 166.708 74.444 166.78 74.12C166.852 73.796 166.936 73.472 167.032 73.148C167.128 72.812 167.218 72.494 167.302 72.194L169.768 64.148H171.892ZM175.221 67.298V77H173.259V67.298H175.221ZM174.267 63.608C174.555 63.608 174.807 63.692 175.023 63.86C175.239 64.028 175.347 64.31 175.347 64.706C175.347 65.09 175.239 65.372 175.023 65.552C174.807 65.72 174.555 65.804 174.267 65.804C173.955 65.804 173.691 65.72 173.475 65.552C173.259 65.372 173.151 65.09 173.151 64.706C173.151 64.31 173.259 64.028 173.475 63.86C173.691 63.692 173.955 63.608 174.267 63.608ZM184.126 74.264C184.126 74.9 183.982 75.434 183.694 75.866C183.406 76.298 182.986 76.628 182.434 76.856C181.882 77.072 181.204 77.18 180.4 77.18C179.764 77.18 179.206 77.126 178.726 77.018C178.258 76.922 177.826 76.778 177.43 76.586V74.912C177.85 75.116 178.33 75.302 178.87 75.47C179.41 75.626 179.926 75.704 180.418 75.704C181.054 75.704 181.516 75.59 181.804 75.362C182.092 75.134 182.236 74.828 182.236 74.444C182.236 74.228 182.176 74.036 182.056 73.868C181.948 73.688 181.738 73.508 181.426 73.328C181.114 73.136 180.664 72.92 180.076 72.68C179.5 72.428 179.014 72.182 178.618 71.942C178.234 71.69 177.934 71.396 177.718 71.06C177.514 70.712 177.412 70.268 177.412 69.728C177.412 68.888 177.736 68.246 178.384 67.802C179.032 67.346 179.878 67.118 180.922 67.118C181.498 67.118 182.032 67.178 182.524 67.298C183.016 67.406 183.496 67.574 183.964 67.802L183.37 69.26C183.094 69.128 182.812 69.02 182.524 68.936C182.248 68.84 181.972 68.762 181.696 68.702C181.42 68.642 181.144 68.612 180.868 68.612C180.352 68.612 179.962 68.702 179.698 68.882C179.434 69.062 179.302 69.314 179.302 69.638C179.302 69.878 179.362 70.082 179.482 70.25C179.614 70.418 179.836 70.586 180.148 70.754C180.472 70.922 180.916 71.12 181.48 71.348C182.044 71.576 182.524 71.81 182.92 72.05C183.316 72.29 183.616 72.584 183.82 72.932C184.024 73.28 184.126 73.724 184.126 74.264ZM188.176 67.298V77H186.214V67.298H188.176ZM187.222 63.608C187.51 63.608 187.762 63.692 187.978 63.86C188.194 64.028 188.302 64.31 188.302 64.706C188.302 65.09 188.194 65.372 187.978 65.552C187.762 65.72 187.51 65.804 187.222 65.804C186.91 65.804 186.646 65.72 186.43 65.552C186.214 65.372 186.106 65.09 186.106 64.706C186.106 64.31 186.214 64.028 186.43 63.86C186.646 63.692 186.91 63.608 187.222 63.608ZM194.345 75.632C194.597 75.632 194.843 75.608 195.083 75.56C195.323 75.512 195.533 75.458 195.713 75.398V76.838C195.509 76.934 195.239 77.012 194.903 77.072C194.579 77.144 194.237 77.18 193.877 77.18C193.373 77.18 192.911 77.09 192.491 76.91C192.071 76.73 191.735 76.418 191.483 75.974C191.231 75.53 191.105 74.912 191.105 74.12V68.756H189.863V67.892L191.195 67.172L191.861 65.12H193.067V67.298H195.641V68.756H193.067V74.084C193.067 74.612 193.187 75.002 193.427 75.254C193.667 75.506 193.973 75.632 194.345 75.632ZM203.69 74.264C203.69 74.9 203.546 75.434 203.258 75.866C202.97 76.298 202.55 76.628 201.998 76.856C201.446 77.072 200.768 77.18 199.964 77.18C199.328 77.18 198.77 77.126 198.29 77.018C197.822 76.922 197.39 76.778 196.994 76.586V74.912C197.414 75.116 197.894 75.302 198.434 75.47C198.974 75.626 199.49 75.704 199.982 75.704C200.618 75.704 201.08 75.59 201.368 75.362C201.656 75.134 201.8 74.828 201.8 74.444C201.8 74.228 201.74 74.036 201.62 73.868C201.512 73.688 201.302 73.508 200.99 73.328C200.678 73.136 200.228 72.92 199.64 72.68C199.064 72.428 198.578 72.182 198.182 71.942C197.798 71.69 197.498 71.396 197.282 71.06C197.078 70.712 196.976 70.268 196.976 69.728C196.976 68.888 197.3 68.246 197.948 67.802C198.596 67.346 199.442 67.118 200.486 67.118C201.062 67.118 201.596 67.178 202.088 67.298C202.58 67.406 203.06 67.574 203.528 67.802L202.934 69.26C202.658 69.128 202.376 69.02 202.088 68.936C201.812 68.84 201.536 68.762 201.26 68.702C200.984 68.642 200.708 68.612 200.432 68.612C199.916 68.612 199.526 68.702 199.262 68.882C198.998 69.062 198.866 69.314 198.866 69.638C198.866 69.878 198.926 70.082 199.046 70.25C199.178 70.418 199.4 70.586 199.712 70.754C200.036 70.922 200.48 71.12 201.044 71.348C201.608 71.576 202.088 71.81 202.484 72.05C202.88 72.29 203.18 72.584 203.384 72.932C203.588 73.28 203.69 73.724 203.69 74.264Z" fill="black"/>
<mask id="mask0_188_1350" style="mask-type:alpha" maskUnits="userSpaceOnUse" x="0" y="112" width="454" height="138">
<path d="M0.5 122C0.5 116.753 4.75329 112.5 10 112.5H444C449.247 112.5 453.5 116.753 453.5 122V240C453.5 245.247 449.247 249.5 444 249.5H9.99999C4.75329 249.5 0.5 245.247 0.5 240V122Z" fill="white" stroke="#E0E6ED"/>
</mask>
<g mask="url(#mask0_188_1350)">
<path d="M0 249.992V163.671C26.4833 163.671 49.1833 113.695 75.6667 113.695C102.15 113.695 124.85 163.671 151.333 163.671C177.817 163.671 200.517 131.868 227 131.868C253.483 131.868 276.183 168.214 302.667 168.214C329.15 168.214 351.85 159.127 378.333 159.127C404.817 159.127 427.517 186.387 454 186.387C454 186.387 454 186.387 454 249.992H0Z" fill="url(#paint0_linear_188_1350)"/>
<path d="M0 163.671C26.4833 163.671 49.1833 113.695 75.6667 113.695C102.15 113.695 124.85 163.671 151.333 163.671C177.817 163.671 200.517 131.868 227 131.868C253.483 131.868 276.183 168.214 302.667 168.214C329.15 168.214 351.85 159.127 378.333 159.127C404.817 159.127 427.517 186.387 454 186.387" stroke="#652DBF" stroke-width="2"/>
</g>
</g>
</g>
<defs>
<filter id="filter0_d_188_1350" x="0" y="0" width="454" height="250" filterUnits="userSpaceOnUse" color-interpolation-filters="sRGB">
<feFlood flood-opacity="0" result="BackgroundImageFix"/>
<feColorMatrix in="SourceAlpha" type="matrix" values="0 0 0 0 0 0 0 0 0 0 0 0 0 0 0 0 0 0 127 0" result="hardAlpha"/>
<feOffset/>
<feComposite in2="hardAlpha" operator="out"/>
<feColorMatrix type="matrix" values="0 0 0 0 0 0 0 0 0 0 0 0 0 0 0 0 0 0 0.25 0"/>
<feBlend mode="normal" in2="BackgroundImageFix" result="effect1_dropShadow_188_1350"/>
<feBlend mode="normal" in="SourceGraphic" in2="effect1_dropShadow_188_1350" result="shape"/>
</filter>
<filter id="filter1_d_188_1350" x="0" y="0" width="454" height="250" filterUnits="userSpaceOnUse" color-interpolation-filters="sRGB">
<feFlood flood-opacity="0" result="BackgroundImageFix"/>
<feColorMatrix in="SourceAlpha" type="matrix" values="0 0 0 0 0 0 0 0 0 0 0 0 0 0 0 0 0 0 127 0" result="hardAlpha"/>
<feOffset/>
<feComposite in2="hardAlpha" operator="out"/>
<feColorMatrix type="matrix" values="0 0 0 0 0 0 0 0 0 0 0 0 0 0 0 0 0 0 0.25 0"/>
<feBlend mode="normal" in2="BackgroundImageFix" result="effect1_dropShadow_188_1350"/>
<feBlend mode="normal" in="SourceGraphic" in2="effect1_dropShadow_188_1350" result="shape"/>
</filter>
<linearGradient id="paint0_linear_188_1350" x1="0" y1="113.695" x2="0" y2="249.992" gradientUnits="userSpaceOnUse">
<stop stop-color="#652DBF" stop-opacity="0.42"/>
<stop offset="1" stop-color="#D2B6FF" stop-opacity="0.2"/>
</linearGradient>
<clipPath id="clip0_188_1350">
<rect width="454" height="250" rx="12" fill="white"/>
</clipPath>
</defs>
</svg>
