<svg width="25" height="25" viewBox="0 0 25 25" fill="none" xmlns="http://www.w3.org/2000/svg">
<mask id="mask0_188_837" style="mask-type:luminance" maskUnits="userSpaceOnUse" x="0" y="0" width="25" height="25">
<path d="M25 0H0V25H25V0Z" fill="white"/>
</mask>
<g mask="url(#mask0_188_837)">
<path d="M25 12.7396C25 11.7377 24.9023 10.9743 24.707 10.2109H12.7441V14.8388H19.7754C19.6289 15.9838 18.8477 17.7014 17.1875 18.8941V19.0373L20.9961 21.8999L21.2402 21.9476C23.6328 19.7052 25 16.5086 25 12.7396Z" fill="#4285F4"/>
<path d="M12.748 24.9019C16.2148 24.9019 19.0957 23.8046 21.1953 21.8962L17.1914 18.8427C16.1172 19.5584 14.6523 20.0832 12.748 20.0832C9.37891 20.0832 6.49805 17.8885 5.47266 14.8828H5.32617L1.37109 17.8408L1.32227 17.984C3.4707 22.1347 7.76758 24.9019 12.748 24.9019Z" fill="#34A853"/>
<path d="M5.52148 14.931C5.22852 14.1676 5.08203 13.3089 5.08203 12.4501C5.08203 11.5913 5.22852 10.7802 5.47266 9.96917V9.82604L1.46875 6.82031L1.32227 6.86802C0.443359 8.53787 -0.0449219 10.4463 -0.0449219 12.4501C-0.0449219 14.4539 0.443359 16.3623 1.32227 18.0321L5.52148 14.931Z" fill="#FBBC05"/>
<path d="M12.7461 4.8187C15.1387 4.8187 16.75 5.82061 17.6777 6.67939L21.291 3.24427C19.0938 1.24046 16.2129 0 12.7461 0C7.76563 0 3.46875 2.81489 1.36914 6.87023L5.4707 10.0191C6.54492 6.96565 9.37695 4.8187 12.7461 4.8187Z" fill="#EB4335"/>
</g>
</svg>
