<svg width="136" height="24" viewBox="0 0 136 24" fill="none" xmlns="http://www.w3.org/2000/svg">
<path d="M12.0001 17.27L16.1501 19.78C16.9101 20.24 17.8401 19.56 17.6401 18.7L16.5401 13.98L20.2101 10.8C20.8801 10.22 20.5201 9.12001 19.6401 9.05001L14.8101 8.64001L12.9201 4.18001C12.5801 3.37001 11.4201 3.37001 11.0801 4.18001L9.19007 8.63001L4.36007 9.04001C3.48007 9.11001 3.12007 10.21 3.79007 10.79L7.46007 13.97L6.36007 18.69C6.16007 19.55 7.09007 20.23 7.85007 19.77L12.0001 17.27Z" fill="white"/>
<path d="M40.0001 17.27L44.1501 19.78C44.9101 20.24 45.8401 19.56 45.6401 18.7L44.5401 13.98L48.2101 10.8C48.8801 10.22 48.5201 9.12001 47.6401 9.05001L42.8101 8.64001L40.9201 4.18001C40.5801 3.37001 39.4201 3.37001 39.0801 4.18001L37.1901 8.63001L32.3601 9.04001C31.4801 9.11001 31.1201 10.21 31.7901 10.79L35.4601 13.97L34.3601 18.69C34.1601 19.55 35.0901 20.23 35.8501 19.77L40.0001 17.27Z" fill="white"/>
<path d="M68.0001 17.27L72.1501 19.78C72.9101 20.24 73.8401 19.56 73.6401 18.7L72.5401 13.98L76.2101 10.8C76.8801 10.22 76.5201 9.12001 75.6401 9.05001L70.8101 8.64001L68.9201 4.18001C68.5801 3.37001 67.4201 3.37001 67.0801 4.18001L65.1901 8.63001L60.3601 9.04001C59.4801 9.11001 59.1201 10.21 59.7901 10.79L63.4601 13.97L62.3601 18.69C62.1601 19.55 63.0901 20.23 63.8501 19.77L68.0001 17.27Z" fill="white"/>
<path d="M96.0001 17.27L100.15 19.78C100.91 20.24 101.84 19.56 101.64 18.7L100.54 13.98L104.21 10.8C104.88 10.22 104.52 9.12001 103.64 9.05001L98.8101 8.64001L96.9201 4.18001C96.5801 3.37001 95.4201 3.37001 95.0801 4.18001L93.1901 8.63001L88.3601 9.04001C87.4801 9.11001 87.1201 10.21 87.7901 10.79L91.4601 13.97L90.3601 18.69C90.1601 19.55 91.0901 20.23 91.8501 19.77L96.0001 17.27Z" fill="white"/>
<path d="M124 17.27L128.15 19.78C128.91 20.24 129.84 19.56 129.64 18.7L128.54 13.98L132.21 10.8C132.88 10.22 132.52 9.12001 131.64 9.05001L126.81 8.64001L124.92 4.18001C124.58 3.37001 123.42 3.37001 123.08 4.18001L121.19 8.63001L116.36 9.04001C115.48 9.11001 115.12 10.21 115.79 10.79L119.46 13.97L118.36 18.69C118.16 19.55 119.09 20.23 119.85 19.77L124 17.27Z" fill="white"/>
</svg>
