<svg width="167" height="62" viewBox="0 0 167 62" fill="none" xmlns="http://www.w3.org/2000/svg">
<path d="M117.555 21.0137C116.721 21.0137 115.883 20.7248 115.202 20.1352L109.102 14.8474C107.603 13.5471 107.441 11.278 108.741 9.77786C110.042 8.27871 112.309 8.11483 113.812 9.41616L119.911 14.7039C121.41 16.0043 121.573 18.2743 120.273 19.7735C119.561 20.5929 118.561 21.0137 117.555 21.0137Z" fill="#652DBF"/>
<path d="M129.24 15.4807C127.374 15.4807 125.797 14.0388 125.66 12.1488L125.072 4.09354C124.929 2.11342 126.416 0.392211 128.395 0.247726C130.367 0.0993622 132.097 1.59076 132.242 3.57088L132.83 11.6252C132.974 13.6053 131.486 15.3265 129.506 15.471C129.416 15.4778 129.327 15.4807 129.24 15.4807Z" fill="#652DBF"/>
<path d="M0.612549 37.7604V11.823L8.94612 7.61255V19.3672H16.1694V26.8533H8.94612V37.7604C8.94612 38.6962 9.16624 39.4846 9.60455 40.1275C10.0438 40.7713 10.5936 41.2106 11.2569 41.4433C11.7835 41.6392 12.3391 41.7372 12.9238 41.7372C13.0576 41.7372 13.205 41.7275 13.3621 41.7081C14.102 41.6479 14.7837 41.4443 15.4101 41.0923L18.2756 47.4972C16.9102 49.1738 14.6964 50.0116 11.637 50.0116C10.1757 49.9718 8.79582 49.6896 7.49837 49.1641C6.20091 48.6375 5.03049 47.8763 3.99 46.8824C2.94564 45.8884 2.1214 44.6065 1.51921 43.0365C0.913154 41.4686 0.612549 39.7095 0.612549 37.7604Z" fill="#010E21"/>
<path d="M21.2626 41.2721C21.2626 39.7526 21.4905 38.3921 21.9491 37.1935C22.4049 35.995 22.9576 35.0214 23.6005 34.2689C24.2444 33.5213 25.1249 32.8716 26.2478 32.3247C27.3678 31.7797 28.3666 31.3812 29.2451 31.1271C30.1217 30.8731 31.266 30.6791 32.6808 30.5414C34.0936 30.4057 35.169 30.3281 35.9128 30.3077C36.6517 30.2883 37.6757 30.2786 38.9828 30.2786C39.0585 30.2786 39.1147 30.2786 39.1438 30.2786C39.1729 30.2786 39.2175 30.2786 39.2757 30.2786C39.3338 30.2786 39.3804 30.2786 39.4221 30.2786C39.1089 26.9652 37.2752 25.307 33.9239 25.307C32.8136 25.307 31.7615 25.5475 30.7666 26.0236C29.7717 26.5017 29.0008 27.1989 28.4558 28.1143L22.8994 25.307C23.3678 24.0794 24.2046 22.9739 25.4148 21.9887C26.6231 21.0045 28.0349 20.2403 29.6553 19.6934C31.2728 19.1485 32.93 18.875 34.6269 18.875C36.2822 18.875 37.8725 19.1339 39.393 19.6498C40.9135 20.1676 42.305 20.9472 43.5753 21.9887C44.8417 23.0331 45.857 24.4459 46.6163 26.2292C47.3765 28.0134 47.7566 30.0556 47.7566 32.3548V49.5475H41.1482L40.6808 46.9167C37.1889 48.9841 33.9937 50.0159 31.0895 50.0159C28.2405 50.0159 25.8919 49.2023 24.0417 47.5742C22.1867 45.947 21.2626 43.8457 21.2626 41.2721ZM29.5962 39.9572C29.5962 41.2653 30.0345 42.2912 30.912 43.0428C31.7896 43.7943 32.8883 44.1686 34.2168 44.1686C35.6577 44.1686 36.9057 43.7448 37.9588 42.8963C39.0119 42.0478 39.5385 40.8348 39.5385 39.2561L39.4793 35.3085H37.7542C37.09 35.3085 36.5149 35.323 36.0281 35.3521C35.5404 35.3812 34.9469 35.4384 34.2449 35.5276C33.5438 35.6158 32.9474 35.7603 32.4616 35.9659C31.9738 36.1715 31.4968 36.4391 31.0284 36.7698C30.56 37.1024 30.2032 37.5358 29.9598 38.0721C29.7154 38.6074 29.5962 39.2357 29.5962 39.9572Z" fill="#010E21"/>
<path d="M52.5126 61.7715V19.3715H60.8481V22.1206C63.3809 19.9572 66.3172 18.875 69.65 18.875C72.0064 18.875 74.0971 19.6207 75.922 21.1111C77.7431 22.6006 79.1104 24.5089 80.0161 26.8362C80.9218 29.1645 81.3746 31.6614 81.3746 34.3291C81.3746 35.9669 81.2437 37.53 80.98 39.0108C80.7152 40.4954 80.2779 41.914 79.6651 43.2716C79.0512 44.6263 78.2891 45.7977 77.3834 46.7838C76.4767 47.771 75.3295 48.5545 73.9468 49.1412C72.5611 49.7269 71.0222 50.0178 69.3271 50.0178C66.0108 50.0178 63.186 48.9434 60.8471 46.7887V61.7725L52.5126 61.7715ZM61.7101 27.9931C60.5291 29.5892 59.9414 31.7012 59.9414 34.3281C59.9414 36.955 60.5291 39.0689 61.7101 40.6631C62.8883 42.2592 64.4331 43.0583 66.3453 43.0583C68.3516 43.0583 69.971 42.2602 71.1996 40.6631C72.4292 39.068 73.043 36.955 73.043 34.3281C73.043 31.7022 72.4292 29.5902 71.1996 27.9931C69.971 26.3979 68.3516 25.5998 66.3453 25.5998C64.4321 25.5998 62.8883 26.3979 61.7101 27.9931Z" fill="#010E21"/>
<path d="M84.3625 34.3436C84.3625 32.9026 84.5565 31.4607 84.9482 30.0168C85.3371 28.5749 85.9451 27.1863 86.7752 25.85C87.6033 24.5157 88.5885 23.3308 89.7298 22.2961C90.8702 21.2643 92.2617 20.4352 93.9121 19.8108C95.5577 19.1882 97.3264 18.875 99.2202 18.875C100.875 18.875 102.395 19.0602 103.78 19.4306C105.165 19.802 106.333 20.3043 107.29 20.9366C108.243 21.5717 109.103 22.3165 109.864 23.1737C110.624 24.0318 111.223 24.9288 111.661 25.8636C112.099 26.7984 112.468 27.7652 112.773 28.7591C113.073 29.7531 113.285 30.6995 113.401 31.5945C113.499 32.4915 113.556 33.3477 113.577 34.1681C113.577 34.363 113.577 34.5579 113.577 34.7528C113.577 35.2988 113.556 35.7855 113.517 36.2142C113.459 36.7611 113.381 37.1906 113.285 37.5009H92.6981C93.0287 39.0418 93.8384 40.2655 95.1252 41.1712C96.412 42.0769 97.9907 42.5308 99.8622 42.5308C101.07 42.5308 102.204 42.2971 103.269 41.8287C104.332 41.3603 105.136 40.7378 105.682 39.9562L112.144 43.6711C110.72 45.5814 108.819 47.1155 106.443 48.2762C104.062 49.4369 101.655 50.0158 99.2202 50.0158C96.8396 50.0158 94.6888 49.5727 92.7727 48.6854C90.8518 47.8001 89.2925 46.6151 88.093 45.1334C86.8944 43.6527 85.9722 41.9848 85.3284 40.1317C84.6845 38.2815 84.3625 36.3528 84.3625 34.3436ZM92.5798 31.3327H105.798C105.425 29.5591 104.66 28.1608 103.502 27.1368C102.342 26.1138 100.915 25.6018 99.2193 25.6018C97.3846 25.6018 95.8728 26.1245 94.6859 27.1659C93.4952 28.2093 92.7931 29.5979 92.5798 31.3327Z" fill="#010E21"/>
<path d="M116.562 34.4755C116.562 29.7928 117.911 26.0226 120.613 23.163C123.313 20.3043 126.873 18.875 131.301 18.875C133.699 18.875 135.979 19.3715 138.144 20.3664C140.308 21.3603 141.974 22.6869 143.144 24.3441L136.565 28.0028C136.018 27.3191 135.292 26.7683 134.386 26.3475C133.479 25.9276 132.529 25.7172 131.535 25.7172C129.527 25.7172 127.919 26.5143 126.708 28.1055C125.499 29.6978 124.897 31.8011 124.897 34.4154C124.897 36.9948 125.505 39.0786 126.725 40.6699C127.941 42.2612 129.546 43.0583 131.535 43.0583C132.529 43.0583 133.48 42.8478 134.386 42.428C135.293 42.0081 136.018 41.4573 136.565 40.7737L143.144 44.4255C141.915 46.0963 140.218 47.4462 138.056 48.475C135.892 49.5048 133.64 50.0178 131.301 50.0178C126.873 50.0178 123.313 48.5914 120.613 45.7385C117.911 42.8857 116.562 39.131 116.562 34.4755Z" fill="#010E21"/>
<path d="M148.525 37.7604V11.823L156.861 7.61255V19.3672H164.082V26.8533H156.861V37.7604C156.861 38.6962 157.08 39.4846 157.519 40.1275C157.955 40.7713 158.506 41.2106 159.17 41.4433C159.696 41.6392 160.252 41.7372 160.837 41.7372C160.971 41.7372 161.118 41.7275 161.276 41.7081C162.015 41.6479 162.697 41.4443 163.322 41.0923L166.188 47.4972C164.823 49.1738 162.61 50.0116 159.549 50.0116C158.087 49.9718 156.707 49.6896 155.412 49.1641C154.113 48.6375 152.943 47.8763 151.902 46.8824C150.858 45.8884 150.033 44.6065 149.432 43.0365C148.828 41.4686 148.525 39.7095 148.525 37.7604Z" fill="#010E21"/>
</svg>
