<svg width="38" height="38" viewBox="0 0 38 38" fill="none" xmlns="http://www.w3.org/2000/svg">
<g filter="url(#filter0_d_188_1618)">
<circle cx="19" cy="19" r="16.5" fill="#E5D6FF" stroke="white"/>
<path d="M13.4 24.6V22.8359L22.6266 13.6009C22.6985 13.537 22.7778 13.4875 22.8646 13.4525C22.9514 13.4175 23.0417 13.4 23.1355 13.4C23.2298 13.4 23.3208 13.4147 23.4086 13.4441C23.4972 13.474 23.5789 13.5277 23.6536 13.6051L24.3998 14.3556C24.4773 14.4303 24.53 14.5119 24.558 14.6006C24.5865 14.6897 24.6007 14.7789 24.6007 14.868C24.6007 14.9628 24.5846 15.0535 24.5524 15.1403C24.5207 15.2267 24.4698 15.3058 24.3998 15.3776L15.1641 24.6H13.4ZM22.8534 15.9111L23.9007 14.8778L23.1222 14.0994L22.089 15.1466L22.8534 15.9111Z" fill="#010E21"/>
</g>
<defs>
<filter id="filter0_d_188_1618" x="0" y="0" width="38" height="38" filterUnits="userSpaceOnUse" color-interpolation-filters="sRGB">
<feFlood flood-opacity="0" result="BackgroundImageFix"/>
<feColorMatrix in="SourceAlpha" type="matrix" values="0 0 0 0 0 0 0 0 0 0 0 0 0 0 0 0 0 0 127 0" result="hardAlpha"/>
<feOffset/>
<feGaussianBlur stdDeviation="1"/>
<feComposite in2="hardAlpha" operator="out"/>
<feColorMatrix type="matrix" values="0 0 0 0 0 0 0 0 0 0 0 0 0 0 0 0 0 0 0.25 0"/>
<feBlend mode="normal" in2="BackgroundImageFix" result="effect1_dropShadow_188_1618"/>
<feBlend mode="normal" in="SourceGraphic" in2="effect1_dropShadow_188_1618" result="shape"/>
</filter>
</defs>
</svg>
