<svg width="748" height="311" viewBox="0 0 748 311" fill="none" xmlns="http://www.w3.org/2000/svg">
<g filter="url(#filter0_d_188_1289)">
<rect width="748" height="309" rx="12" fill="white"/>
</g>
<path d="M25.12 42L20.416 27.432H20.32C20.352 27.752 20.376 28.184 20.392 28.728C20.424 29.272 20.448 29.856 20.464 30.48C20.496 31.104 20.512 31.72 20.512 32.328V42H18.088V24.864H21.832L26.344 38.616H26.416L31 24.864H34.744V42H32.2V32.184C32.2 31.624 32.208 31.048 32.224 30.456C32.24 29.848 32.264 29.28 32.296 28.752C32.328 28.224 32.352 27.792 32.368 27.456H32.272L27.448 42H25.12ZM49.5554 35.52C49.5554 36.592 49.4194 37.544 49.1474 38.376C48.8754 39.208 48.4834 39.912 47.9714 40.488C47.4754 41.064 46.8674 41.504 46.1474 41.808C45.4274 42.096 44.6194 42.24 43.7234 42.24C42.9074 42.24 42.1474 42.096 41.4434 41.808C40.7394 41.504 40.1314 41.064 39.6194 40.488C39.1074 39.912 38.7074 39.208 38.4194 38.376C38.1474 37.544 38.0114 36.584 38.0114 35.496C38.0114 34.072 38.2434 32.864 38.7074 31.872C39.1714 30.88 39.8354 30.128 40.6994 29.616C41.5794 29.088 42.6194 28.824 43.8194 28.824C44.9394 28.824 45.9314 29.088 46.7954 29.616C47.6594 30.128 48.3314 30.88 48.8114 31.872C49.3074 32.864 49.5554 34.08 49.5554 35.52ZM40.6994 35.52C40.6994 36.48 40.8034 37.312 41.0114 38.016C41.2354 38.704 41.5714 39.232 42.0194 39.6C42.4834 39.968 43.0674 40.152 43.7714 40.152C44.4914 40.152 45.0754 39.968 45.5234 39.6C45.9874 39.232 46.3234 38.704 46.5314 38.016C46.7554 37.312 46.8674 36.48 46.8674 35.52C46.8674 34.528 46.7554 33.696 46.5314 33.024C46.3074 32.352 45.9714 31.84 45.5234 31.488C45.0754 31.12 44.4834 30.936 43.7474 30.936C42.6754 30.936 41.8994 31.336 41.4194 32.136C40.9394 32.936 40.6994 34.064 40.6994 35.52ZM60.7435 38.352C60.7435 39.2 60.5515 39.912 60.1675 40.488C59.7835 41.064 59.2235 41.504 58.4875 41.808C57.7515 42.096 56.8475 42.24 55.7755 42.24C54.9275 42.24 54.1835 42.168 53.5435 42.024C52.9195 41.896 52.3435 41.704 51.8155 41.448V39.216C52.3755 39.488 53.0155 39.736 53.7355 39.96C54.4555 40.168 55.1435 40.272 55.7995 40.272C56.6475 40.272 57.2635 40.12 57.6475 39.816C58.0315 39.512 58.2235 39.104 58.2235 38.592C58.2235 38.304 58.1435 38.048 57.9835 37.824C57.8395 37.584 57.5595 37.344 57.1435 37.104C56.7275 36.848 56.1275 36.56 55.3435 36.24C54.5755 35.904 53.9275 35.576 53.3995 35.256C52.8875 34.92 52.4875 34.528 52.1995 34.08C51.9275 33.616 51.7915 33.024 51.7915 32.304C51.7915 31.184 52.2235 30.328 53.0875 29.736C53.9515 29.128 55.0795 28.824 56.4715 28.824C57.2395 28.824 57.9515 28.904 58.6075 29.064C59.2635 29.208 59.9035 29.432 60.5275 29.736L59.7355 31.68C59.3675 31.504 58.9915 31.36 58.6075 31.248C58.2395 31.12 57.8715 31.016 57.5035 30.936C57.1355 30.856 56.7675 30.816 56.3995 30.816C55.7115 30.816 55.1915 30.936 54.8395 31.176C54.4875 31.416 54.3115 31.752 54.3115 32.184C54.3115 32.504 54.3915 32.776 54.5515 33C54.7275 33.224 55.0235 33.448 55.4395 33.672C55.8715 33.896 56.4635 34.16 57.2155 34.464C57.9675 34.768 58.6075 35.08 59.1355 35.4C59.6635 35.72 60.0635 36.112 60.3355 36.576C60.6075 37.04 60.7435 37.632 60.7435 38.352ZM68.1111 40.176C68.4471 40.176 68.7751 40.144 69.0951 40.08C69.4151 40.016 69.6951 39.944 69.9351 39.864V41.784C69.6631 41.912 69.3031 42.016 68.8551 42.096C68.4231 42.192 67.9671 42.24 67.4871 42.24C66.8151 42.24 66.1991 42.12 65.6391 41.88C65.0791 41.64 64.6311 41.224 64.2951 40.632C63.9591 40.04 63.7911 39.216 63.7911 38.16V31.008H62.1351V29.856L63.9111 28.896L64.7991 26.16H66.4071V29.064H69.8391V31.008H66.4071V38.112C66.4071 38.816 66.5671 39.336 66.8871 39.672C67.2071 40.008 67.6151 40.176 68.1111 40.176ZM88.495 42L86.887 37.056H80.767L79.159 42H76.375L82.399 24.792H85.279L91.279 42H88.495ZM84.607 29.976C84.559 29.784 84.479 29.52 84.367 29.184C84.271 28.832 84.175 28.472 84.079 28.104C83.983 27.72 83.895 27.4 83.815 27.144C83.751 27.496 83.671 27.848 83.575 28.2C83.479 28.552 83.391 28.88 83.311 29.184C83.231 29.488 83.159 29.752 83.095 29.976L81.511 34.8H86.191L84.607 29.976ZM98.1447 42.24C97.0087 42.24 96.0087 42.008 95.1447 41.544C94.2967 41.08 93.6327 40.36 93.1527 39.384C92.6887 38.392 92.4567 37.136 92.4567 35.616C92.4567 34.016 92.7127 32.72 93.2247 31.728C93.7367 30.736 94.4327 30.008 95.3127 29.544C96.1927 29.064 97.2007 28.824 98.3367 28.824C99.0087 28.824 99.6487 28.904 100.257 29.064C100.881 29.208 101.393 29.376 101.793 29.568L101.001 31.608C100.601 31.448 100.169 31.304 99.7047 31.176C99.2407 31.048 98.8007 30.984 98.3847 30.984C97.6487 30.984 97.0407 31.16 96.5607 31.512C96.0967 31.848 95.7447 32.36 95.5047 33.048C95.2647 33.72 95.1447 34.568 95.1447 35.592C95.1447 36.568 95.2647 37.392 95.5047 38.064C95.7447 38.736 96.0967 39.248 96.5607 39.6C97.0407 39.936 97.6167 40.104 98.2887 40.104C98.9447 40.104 99.5287 40.024 100.041 39.864C100.569 39.704 101.057 39.496 101.505 39.24V41.448C101.057 41.72 100.569 41.92 100.041 42.048C99.5127 42.176 98.8807 42.24 98.1447 42.24ZM108.892 40.176C109.228 40.176 109.556 40.144 109.876 40.08C110.196 40.016 110.476 39.944 110.716 39.864V41.784C110.444 41.912 110.084 42.016 109.636 42.096C109.204 42.192 108.748 42.24 108.268 42.24C107.596 42.24 106.98 42.12 106.42 41.88C105.86 41.64 105.412 41.224 105.076 40.632C104.74 40.04 104.572 39.216 104.572 38.16V31.008H102.916V29.856L104.692 28.896L105.58 26.16H107.188V29.064H110.62V31.008H107.188V38.112C107.188 38.816 107.348 39.336 107.668 39.672C107.988 40.008 108.396 40.176 108.892 40.176ZM115.737 29.064V42H113.121V29.064H115.737ZM114.465 24.144C114.849 24.144 115.185 24.256 115.473 24.48C115.761 24.704 115.905 25.08 115.905 25.608C115.905 26.12 115.761 26.496 115.473 26.736C115.185 26.96 114.849 27.072 114.465 27.072C114.049 27.072 113.697 26.96 113.409 26.736C113.121 26.496 112.977 26.12 112.977 25.608C112.977 25.08 113.121 24.704 113.409 24.48C113.697 24.256 114.049 24.144 114.465 24.144ZM122.187 42L117.555 29.064H120.315L122.739 36.624C122.867 36.944 122.979 37.304 123.075 37.704C123.187 38.104 123.283 38.488 123.363 38.856C123.443 39.224 123.499 39.544 123.531 39.816H123.627C123.659 39.544 123.715 39.224 123.795 38.856C123.891 38.472 123.995 38.088 124.107 37.704C124.219 37.304 124.331 36.944 124.443 36.624L126.867 29.064H129.651L124.995 42H122.187ZM136.368 28.824C137.44 28.824 138.368 29.064 139.152 29.544C139.936 30.008 140.536 30.68 140.952 31.56C141.384 32.44 141.6 33.48 141.6 34.68V36.072H133.464C133.496 37.4 133.816 38.416 134.424 39.12C135.032 39.824 135.888 40.176 136.992 40.176C137.776 40.176 138.472 40.104 139.08 39.96C139.704 39.8 140.336 39.568 140.976 39.264V41.376C140.368 41.664 139.744 41.88 139.104 42.024C138.48 42.168 137.72 42.24 136.824 42.24C135.656 42.24 134.616 41.992 133.704 41.496C132.792 41 132.08 40.264 131.568 39.288C131.056 38.296 130.8 37.08 130.8 35.64C130.8 34.184 131.032 32.952 131.496 31.944C131.96 30.936 132.608 30.168 133.44 29.64C134.288 29.096 135.264 28.824 136.368 28.824ZM136.368 30.792C135.552 30.792 134.896 31.088 134.4 31.68C133.904 32.272 133.616 33.112 133.536 34.2H139.032C139.032 33.528 138.936 32.936 138.744 32.424C138.552 31.912 138.256 31.512 137.856 31.224C137.472 30.936 136.976 30.792 136.368 30.792ZM155.259 24.864C157.355 24.864 158.883 25.32 159.843 26.232C160.819 27.128 161.307 28.384 161.307 30C161.307 30.72 161.195 31.408 160.971 32.064C160.763 32.72 160.411 33.312 159.915 33.84C159.435 34.352 158.787 34.76 157.971 35.064C157.155 35.352 156.155 35.496 154.971 35.496H153.291V42H150.627V24.864H155.259ZM155.115 27.048H153.291V33.312H154.683C155.547 33.312 156.267 33.208 156.843 33C157.419 32.776 157.851 32.432 158.139 31.968C158.443 31.488 158.595 30.864 158.595 30.096C158.595 29.072 158.315 28.312 157.755 27.816C157.195 27.304 156.315 27.048 155.115 27.048ZM170.383 28.824C170.591 28.824 170.823 28.84 171.079 28.872C171.335 28.888 171.551 28.912 171.727 28.944L171.463 31.32C171.287 31.272 171.087 31.232 170.863 31.2C170.639 31.168 170.415 31.152 170.191 31.152C169.759 31.152 169.343 31.248 168.943 31.44C168.543 31.616 168.183 31.88 167.863 32.232C167.543 32.568 167.287 32.984 167.095 33.48C166.903 33.976 166.807 34.544 166.807 35.184V42H164.215V29.064H166.255L166.591 31.368H166.735C166.975 30.904 167.271 30.48 167.623 30.096C167.991 29.712 168.407 29.408 168.871 29.184C169.335 28.944 169.839 28.824 170.383 28.824ZM184.344 35.52C184.344 36.592 184.208 37.544 183.936 38.376C183.664 39.208 183.272 39.912 182.76 40.488C182.264 41.064 181.656 41.504 180.936 41.808C180.216 42.096 179.408 42.24 178.512 42.24C177.696 42.24 176.936 42.096 176.232 41.808C175.528 41.504 174.92 41.064 174.408 40.488C173.896 39.912 173.496 39.208 173.208 38.376C172.936 37.544 172.8 36.584 172.8 35.496C172.8 34.072 173.032 32.864 173.496 31.872C173.96 30.88 174.624 30.128 175.488 29.616C176.368 29.088 177.408 28.824 178.608 28.824C179.728 28.824 180.72 29.088 181.584 29.616C182.448 30.128 183.12 30.88 183.6 31.872C184.096 32.864 184.344 34.08 184.344 35.52ZM175.488 35.52C175.488 36.48 175.592 37.312 175.8 38.016C176.024 38.704 176.36 39.232 176.808 39.6C177.272 39.968 177.856 40.152 178.56 40.152C179.28 40.152 179.864 39.968 180.312 39.6C180.776 39.232 181.112 38.704 181.32 38.016C181.544 37.312 181.656 36.48 181.656 35.52C181.656 34.528 181.544 33.696 181.32 33.024C181.096 32.352 180.76 31.84 180.312 31.488C179.864 31.12 179.272 30.936 178.536 30.936C177.464 30.936 176.688 31.336 176.208 32.136C175.728 32.936 175.488 34.064 175.488 35.52ZM193.421 31.008H190.469V42H187.853V31.008H185.861V29.808L187.853 29.016V28.2C187.853 27.096 188.005 26.216 188.309 25.56C188.629 24.888 189.093 24.4 189.701 24.096C190.309 23.792 191.053 23.64 191.933 23.64C192.461 23.64 192.949 23.688 193.397 23.784C193.845 23.88 194.237 23.984 194.573 24.096L193.925 26.04C193.685 25.96 193.405 25.888 193.085 25.824C192.781 25.744 192.469 25.704 192.149 25.704C191.573 25.704 191.149 25.912 190.877 26.328C190.605 26.744 190.469 27.376 190.469 28.224V29.064H193.421V31.008ZM198.101 29.064V42H195.485V29.064H198.101ZM196.829 24.144C197.213 24.144 197.549 24.256 197.837 24.48C198.125 24.704 198.269 25.08 198.269 25.608C198.269 26.12 198.125 26.496 197.837 26.736C197.549 26.96 197.213 27.072 196.829 27.072C196.413 27.072 196.061 26.96 195.773 26.736C195.485 26.496 195.341 26.12 195.341 25.608C195.341 25.08 195.485 24.704 195.773 24.48C196.061 24.256 196.413 24.144 196.829 24.144ZM204.33 42H201.738V23.76H204.33V42ZM212.868 28.824C213.94 28.824 214.868 29.064 215.652 29.544C216.436 30.008 217.036 30.68 217.452 31.56C217.884 32.44 218.1 33.48 218.1 34.68V36.072H209.964C209.996 37.4 210.316 38.416 210.924 39.12C211.532 39.824 212.388 40.176 213.492 40.176C214.276 40.176 214.972 40.104 215.58 39.96C216.204 39.8 216.836 39.568 217.476 39.264V41.376C216.868 41.664 216.244 41.88 215.604 42.024C214.98 42.168 214.22 42.24 213.324 42.24C212.156 42.24 211.116 41.992 210.204 41.496C209.292 41 208.58 40.264 208.068 39.288C207.556 38.296 207.3 37.08 207.3 35.64C207.3 34.184 207.532 32.952 207.996 31.944C208.46 30.936 209.108 30.168 209.94 29.64C210.788 29.096 211.764 28.824 212.868 28.824ZM212.868 30.792C212.052 30.792 211.396 31.088 210.9 31.68C210.404 32.272 210.116 33.112 210.036 34.2H215.532C215.532 33.528 215.436 32.936 215.244 32.424C215.052 31.912 214.756 31.512 214.356 31.224C213.972 30.936 213.476 30.792 212.868 30.792ZM229.236 38.352C229.236 39.2 229.044 39.912 228.66 40.488C228.276 41.064 227.716 41.504 226.98 41.808C226.244 42.096 225.34 42.24 224.268 42.24C223.42 42.24 222.676 42.168 222.036 42.024C221.412 41.896 220.836 41.704 220.308 41.448V39.216C220.868 39.488 221.508 39.736 222.228 39.96C222.948 40.168 223.636 40.272 224.292 40.272C225.14 40.272 225.756 40.12 226.14 39.816C226.524 39.512 226.716 39.104 226.716 38.592C226.716 38.304 226.636 38.048 226.476 37.824C226.332 37.584 226.052 37.344 225.636 37.104C225.22 36.848 224.62 36.56 223.836 36.24C223.068 35.904 222.42 35.576 221.892 35.256C221.38 34.92 220.98 34.528 220.692 34.08C220.42 33.616 220.284 33.024 220.284 32.304C220.284 31.184 220.716 30.328 221.58 29.736C222.444 29.128 223.572 28.824 224.964 28.824C225.732 28.824 226.444 28.904 227.1 29.064C227.756 29.208 228.396 29.432 229.02 29.736L228.228 31.68C227.86 31.504 227.484 31.36 227.1 31.248C226.732 31.12 226.364 31.016 225.996 30.936C225.628 30.856 225.26 30.816 224.892 30.816C224.204 30.816 223.684 30.936 223.332 31.176C222.98 31.416 222.804 31.752 222.804 32.184C222.804 32.504 222.884 32.776 223.044 33C223.22 33.224 223.516 33.448 223.932 33.672C224.364 33.896 224.956 34.16 225.708 34.464C226.46 34.768 227.1 35.08 227.628 35.4C228.156 35.72 228.556 36.112 228.828 36.576C229.1 37.04 229.236 37.632 229.236 38.352Z" fill="black"/>
<path d="M714.092 99H700.12V96.06L705.132 90.992C706.14 89.9467 706.952 89.0787 707.568 88.388C708.184 87.6787 708.632 87.044 708.912 86.484C709.192 85.9053 709.332 85.2893 709.332 84.636C709.332 83.8333 709.108 83.236 708.66 82.844C708.231 82.452 707.643 82.256 706.896 82.256C706.131 82.256 705.384 82.4333 704.656 82.788C703.928 83.1427 703.163 83.6467 702.36 84.3L700.064 81.584C700.643 81.08 701.249 80.6133 701.884 80.184C702.537 79.7547 703.284 79.4093 704.124 79.148C704.983 78.868 706.009 78.728 707.204 78.728C708.511 78.728 709.631 78.9707 710.564 79.456C711.516 79.9227 712.244 80.5667 712.748 81.388C713.271 82.1907 713.532 83.1053 713.532 84.132C713.532 84.972 713.401 85.7467 713.14 86.456C712.897 87.1653 712.533 87.856 712.048 88.528C711.581 89.1813 711.003 89.8627 710.312 90.572C709.621 91.2627 708.837 92.0187 707.96 92.84L705.384 95.248V95.444H714.092V99ZM723.423 86.232C724.637 86.232 725.719 86.4653 726.671 86.932C727.623 87.3987 728.37 88.08 728.911 88.976C729.471 89.872 729.751 90.9827 729.751 92.308C729.751 93.7453 729.453 94.9867 728.855 96.032C728.258 97.0773 727.362 97.88 726.167 98.44C724.991 99 723.526 99.28 721.771 99.28C720.726 99.28 719.737 99.1867 718.803 99C717.889 98.8133 717.086 98.5427 716.395 98.188V94.548C717.086 94.9027 717.917 95.2107 718.887 95.472C719.858 95.7147 720.773 95.836 721.631 95.836C722.471 95.836 723.171 95.724 723.731 95.5C724.31 95.276 724.749 94.9307 725.047 94.464C725.346 93.9973 725.495 93.4 725.495 92.672C725.495 91.6827 725.169 90.936 724.515 90.432C723.862 89.9093 722.854 89.648 721.491 89.648C720.969 89.648 720.427 89.704 719.867 89.816C719.307 89.9093 718.841 90.0027 718.467 90.096L716.787 89.2L717.543 79.008H728.379V82.592H721.239L720.875 86.512C721.193 86.456 721.529 86.4 721.883 86.344C722.257 86.2693 722.77 86.232 723.423 86.232Z" fill="black"/>
<path d="M706.522 129H705.262V120.11H702.14V119.004H709.63V120.11H706.522V129ZM712.69 121.37C713.605 121.37 714.282 121.571 714.72 121.972C715.159 122.373 715.378 123.013 715.378 123.89V129H714.482L714.244 127.936H714.188C713.974 128.207 713.75 128.435 713.516 128.622C713.292 128.799 713.031 128.93 712.732 129.014C712.443 129.098 712.088 129.14 711.668 129.14C711.22 129.14 710.814 129.061 710.45 128.902C710.096 128.743 709.816 128.501 709.61 128.174C709.405 127.838 709.302 127.418 709.302 126.914C709.302 126.167 709.596 125.593 710.184 125.192C710.772 124.781 711.678 124.557 712.9 124.52L714.174 124.478V124.03C714.174 123.405 714.039 122.971 713.768 122.728C713.498 122.485 713.115 122.364 712.62 122.364C712.228 122.364 711.855 122.425 711.5 122.546C711.146 122.658 710.814 122.789 710.506 122.938L710.128 122.014C710.455 121.837 710.842 121.687 711.29 121.566C711.738 121.435 712.205 121.37 712.69 121.37ZM713.054 125.374C712.121 125.411 711.472 125.561 711.108 125.822C710.754 126.083 710.576 126.452 710.576 126.928C710.576 127.348 710.702 127.656 710.954 127.852C711.216 128.048 711.547 128.146 711.948 128.146C712.583 128.146 713.11 127.973 713.53 127.628C713.95 127.273 714.16 126.732 714.16 126.004V125.332L713.054 125.374ZM718.928 120.95C718.928 121.267 718.919 121.566 718.9 121.846C718.891 122.117 718.877 122.331 718.858 122.49H718.928C719.143 122.173 719.437 121.907 719.81 121.692C720.183 121.477 720.664 121.37 721.252 121.37C722.185 121.37 722.932 121.697 723.492 122.35C724.061 122.994 724.346 123.96 724.346 125.248C724.346 126.107 724.215 126.825 723.954 127.404C723.702 127.983 723.343 128.417 722.876 128.706C722.409 128.995 721.868 129.14 721.252 129.14C720.664 129.14 720.183 129.033 719.81 128.818C719.437 128.603 719.143 128.347 718.928 128.048H718.83L718.578 129H717.696V118.36H718.928V120.95ZM721.042 122.392C720.51 122.392 720.09 122.495 719.782 122.7C719.474 122.896 719.255 123.204 719.124 123.624C718.993 124.035 718.928 124.562 718.928 125.206V125.262C718.928 126.186 719.077 126.895 719.376 127.39C719.684 127.875 720.249 128.118 721.07 128.118C721.742 128.118 722.241 127.871 722.568 127.376C722.904 126.881 723.072 126.167 723.072 125.234C723.072 124.291 722.904 123.582 722.568 123.106C722.241 122.63 721.733 122.392 721.042 122.392ZM731.195 126.928C731.195 127.413 731.074 127.819 730.831 128.146C730.588 128.473 730.243 128.72 729.795 128.888C729.347 129.056 728.815 129.14 728.199 129.14C727.676 129.14 727.224 129.098 726.841 129.014C726.468 128.93 726.136 128.813 725.847 128.664V127.544C726.146 127.693 726.505 127.833 726.925 127.964C727.354 128.085 727.788 128.146 728.227 128.146C728.852 128.146 729.305 128.048 729.585 127.852C729.865 127.647 730.005 127.376 730.005 127.04C730.005 126.853 729.954 126.685 729.851 126.536C729.748 126.387 729.562 126.237 729.291 126.088C729.03 125.939 728.652 125.771 728.157 125.584C727.672 125.397 727.256 125.211 726.911 125.024C726.566 124.837 726.3 124.613 726.113 124.352C725.926 124.091 725.833 123.755 725.833 123.344C725.833 122.709 726.09 122.219 726.603 121.874C727.126 121.529 727.807 121.356 728.647 121.356C729.104 121.356 729.529 121.403 729.921 121.496C730.322 121.58 730.696 121.701 731.041 121.86L730.621 122.84C730.416 122.747 730.196 122.667 729.963 122.602C729.739 122.527 729.51 122.471 729.277 122.434C729.044 122.387 728.806 122.364 728.563 122.364C728.059 122.364 727.672 122.448 727.401 122.616C727.14 122.775 727.009 122.994 727.009 123.274C727.009 123.479 727.07 123.657 727.191 123.806C727.312 123.946 727.513 124.086 727.793 124.226C728.082 124.357 728.465 124.515 728.941 124.702C729.417 124.879 729.823 125.061 730.159 125.248C730.495 125.435 730.752 125.663 730.929 125.934C731.106 126.195 731.195 126.527 731.195 126.928Z" fill="black"/>
<path d="M48.0422 103.123C45.5106 103.123 43.0358 102.373 40.9309 100.966C38.8259 99.5598 37.1853 97.5607 36.2165 95.2218C35.2477 92.8829 34.9943 90.3092 35.4881 87.8263C35.982 85.3433 37.2011 83.0626 38.9912 81.2725C40.7813 79.4824 43.0621 78.2633 45.545 77.7694C48.028 77.2755 50.6016 77.529 52.9405 78.4978C55.2794 79.4666 57.2785 81.1072 58.685 83.2121C60.0915 85.3171 60.8422 87.7918 60.8422 90.3234C60.8422 93.7182 59.4936 96.9739 57.0932 99.3744C54.6927 101.775 51.437 103.123 48.0422 103.123ZM48.0422 81.7901C46.3545 81.7901 44.7046 82.2906 43.3013 83.2282C41.898 84.1659 40.8043 85.4986 40.1584 87.0579C39.5126 88.6171 39.3436 90.3329 39.6728 91.9882C40.0021 93.6435 40.8148 95.164 42.0082 96.3574C43.2016 97.5508 44.7221 98.3635 46.3774 98.6928C48.0327 99.0221 49.7485 98.8531 51.3078 98.2072C52.867 97.5613 54.1997 96.4676 55.1374 95.0643C56.075 93.661 56.5755 92.0112 56.5755 90.3234C56.5755 88.0603 55.6765 85.8898 54.0762 84.2895C52.4759 82.6892 50.3054 81.7901 48.0422 81.7901Z" fill="#515151"/>
<path d="M48.0143 132.99C43.2836 132.987 38.6123 131.935 34.3369 129.91C30.0615 127.885 26.2883 124.937 23.289 121.278L22.1797 119.913L23.289 118.569C26.2909 114.915 30.0652 111.972 34.3404 109.951C38.6157 107.931 43.2856 106.883 48.0143 106.883C52.7431 106.883 57.413 107.931 61.6883 109.951C65.9635 111.972 69.7378 114.915 72.7397 118.569L73.849 119.913L72.7397 121.278C69.7403 124.937 65.9672 127.885 61.6918 129.91C57.4164 131.935 52.7451 132.987 48.0143 132.99ZM27.769 119.934C30.3637 122.712 33.5016 124.926 36.9879 126.441C40.4743 127.955 44.2347 128.736 48.0357 128.736C51.8366 128.736 55.597 127.955 59.0834 126.441C62.5698 124.926 65.7077 122.712 68.3023 119.934C65.7077 117.157 62.5698 114.942 59.0834 113.428C55.597 111.914 51.8366 111.132 48.0357 111.132C44.2347 111.132 40.4743 111.914 36.9879 113.428C33.5016 114.942 30.3637 117.157 27.769 119.934Z" fill="#515151"/>
<path d="M48.0214 133C40.7525 133.005 33.6987 130.535 28.0207 125.997C22.3427 121.458 18.379 115.122 16.782 108.031C15.1849 100.94 16.0497 93.516 19.2339 86.9818C22.4182 80.4475 27.7322 75.1921 34.3013 72.0804C40.8704 68.9687 48.3031 68.1863 55.3762 69.8618C62.4493 71.5373 68.7412 75.5709 73.2163 81.2988C77.6914 87.0267 80.0832 94.1075 79.9978 101.376C79.9125 108.644 77.3551 115.667 72.7467 121.288C69.7474 124.946 65.9742 127.894 61.6988 129.92C57.4234 131.945 52.7521 132.997 48.0214 133ZM48.0214 73.2667C42.5362 73.2667 37.1743 74.8932 32.6135 77.9406C28.0528 80.988 24.4982 85.3193 22.3991 90.3869C20.3 95.4545 19.7508 101.031 20.8209 106.411C21.891 111.79 24.5324 116.732 28.4109 120.61C32.2895 124.489 37.2311 127.13 42.6109 128.2C47.9906 129.271 53.5668 128.721 58.6344 126.622C63.702 124.523 68.0334 120.969 71.0808 116.408C74.1281 111.847 75.7547 106.485 75.7547 101C75.7547 93.6447 72.8328 86.5906 67.6318 81.3896C62.4308 76.1886 55.3767 73.2667 48.0214 73.2667Z" fill="#515151"/>
<path d="M24.9297 119.95C24.9297 119.95 46.4123 143.95 68.279 122.339L71.095 119.95C71.095 119.95 52.8337 101.006 34.295 112.376L24.9297 119.95Z" fill="#515151"/>
<path d="M48.0338 100.997C53.9249 100.997 58.7005 96.2218 58.7005 90.3307C58.7005 84.4397 53.9249 79.6641 48.0338 79.6641C42.1428 79.6641 37.3672 84.4397 37.3672 90.3307C37.3672 96.2218 42.1428 100.997 48.0338 100.997Z" fill="#515151"/>
<path d="M91.566 88V75.148H93.564V86.326H98.676V88H91.566ZM108.68 83.14C108.68 83.944 108.578 84.658 108.374 85.282C108.17 85.906 107.876 86.434 107.492 86.866C107.12 87.298 106.664 87.628 106.124 87.856C105.584 88.072 104.978 88.18 104.306 88.18C103.694 88.18 103.124 88.072 102.596 87.856C102.068 87.628 101.612 87.298 101.228 86.866C100.844 86.434 100.544 85.906 100.328 85.282C100.124 84.658 100.022 83.938 100.022 83.122C100.022 82.054 100.196 81.148 100.544 80.404C100.892 79.66 101.39 79.096 102.038 78.712C102.698 78.316 103.478 78.118 104.378 78.118C105.218 78.118 105.962 78.316 106.61 78.712C107.258 79.096 107.762 79.66 108.122 80.404C108.494 81.148 108.68 82.06 108.68 83.14ZM102.038 83.14C102.038 83.86 102.116 84.484 102.272 85.012C102.44 85.528 102.692 85.924 103.028 86.2C103.376 86.476 103.814 86.614 104.342 86.614C104.882 86.614 105.32 86.476 105.656 86.2C106.004 85.924 106.256 85.528 106.412 85.012C106.58 84.484 106.664 83.86 106.664 83.14C106.664 82.396 106.58 81.772 106.412 81.268C106.244 80.764 105.992 80.38 105.656 80.116C105.32 79.84 104.876 79.702 104.324 79.702C103.52 79.702 102.938 80.002 102.578 80.602C102.218 81.202 102.038 82.048 102.038 83.14ZM115.523 78.118C115.679 78.118 115.853 78.13 116.045 78.154C116.237 78.166 116.399 78.184 116.531 78.208L116.333 79.99C116.201 79.954 116.051 79.924 115.883 79.9C115.715 79.876 115.547 79.864 115.379 79.864C115.055 79.864 114.743 79.936 114.443 80.08C114.143 80.212 113.873 80.41 113.633 80.674C113.393 80.926 113.201 81.238 113.057 81.61C112.913 81.982 112.841 82.408 112.841 82.888V88H110.897V78.298H112.427L112.679 80.026H112.787C112.967 79.678 113.189 79.36 113.453 79.072C113.729 78.784 114.041 78.556 114.389 78.388C114.737 78.208 115.115 78.118 115.523 78.118ZM121.513 78.118C122.317 78.118 123.013 78.298 123.601 78.658C124.189 79.006 124.639 79.51 124.951 80.17C125.275 80.83 125.437 81.61 125.437 82.51V83.554H119.335C119.359 84.55 119.599 85.312 120.055 85.84C120.511 86.368 121.153 86.632 121.981 86.632C122.569 86.632 123.091 86.578 123.547 86.47C124.015 86.35 124.489 86.176 124.969 85.948V87.532C124.513 87.748 124.045 87.91 123.565 88.018C123.097 88.126 122.527 88.18 121.855 88.18C120.979 88.18 120.199 87.994 119.515 87.622C118.831 87.25 118.297 86.698 117.913 85.966C117.529 85.222 117.337 84.31 117.337 83.23C117.337 82.138 117.511 81.214 117.859 80.458C118.207 79.702 118.693 79.126 119.317 78.73C119.953 78.322 120.685 78.118 121.513 78.118ZM121.513 79.594C120.901 79.594 120.409 79.816 120.037 80.26C119.665 80.704 119.449 81.334 119.389 82.15H123.511C123.511 81.646 123.439 81.202 123.295 80.818C123.151 80.434 122.929 80.134 122.629 79.918C122.341 79.702 121.969 79.594 121.513 79.594ZM137.964 78.118C138.996 78.118 139.77 78.4 140.286 78.964C140.814 79.528 141.078 80.434 141.078 81.682V88H139.134V81.934C139.134 81.19 138.996 80.632 138.72 80.26C138.456 79.876 138.042 79.684 137.478 79.684C136.698 79.684 136.14 79.954 135.804 80.494C135.48 81.022 135.318 81.79 135.318 82.798V88H133.356V81.934C133.356 81.442 133.296 81.028 133.176 80.692C133.056 80.356 132.876 80.104 132.636 79.936C132.396 79.768 132.084 79.684 131.7 79.684C131.16 79.684 130.734 79.816 130.422 80.08C130.11 80.344 129.888 80.734 129.756 81.25C129.624 81.754 129.558 82.372 129.558 83.104V88H127.614V78.298H129.144L129.432 79.594H129.522C129.714 79.258 129.942 78.982 130.206 78.766C130.482 78.55 130.794 78.388 131.142 78.28C131.49 78.172 131.85 78.118 132.222 78.118C132.906 78.118 133.482 78.25 133.95 78.514C134.418 78.766 134.766 79.156 134.994 79.684H135.12C135.408 79.144 135.81 78.748 136.326 78.496C136.842 78.244 137.388 78.118 137.964 78.118ZM152.285 88H147.407V86.884L148.847 86.434V76.732L147.407 76.264V75.148H152.285V76.264L150.845 76.732V86.434L152.285 86.884V88ZM158.978 78.118C160.07 78.118 160.946 78.538 161.606 79.378C162.266 80.218 162.596 81.472 162.596 83.14C162.596 84.232 162.44 85.156 162.128 85.912C161.828 86.668 161.402 87.238 160.85 87.622C160.298 87.994 159.656 88.18 158.924 88.18C158.48 88.18 158.084 88.12 157.736 88C157.388 87.868 157.094 87.7 156.854 87.496C156.626 87.28 156.422 87.052 156.242 86.812H156.134C156.158 87.028 156.182 87.286 156.206 87.586C156.23 87.874 156.242 88.132 156.242 88.36V92.32H154.298V78.298H155.882L156.152 79.594H156.242C156.422 79.33 156.632 79.084 156.872 78.856C157.124 78.628 157.418 78.448 157.754 78.316C158.102 78.184 158.51 78.118 158.978 78.118ZM158.456 79.684C157.928 79.684 157.502 79.804 157.178 80.044C156.854 80.272 156.614 80.62 156.458 81.088C156.314 81.544 156.242 82.126 156.242 82.834V83.122C156.242 83.866 156.308 84.502 156.44 85.03C156.584 85.546 156.818 85.942 157.142 86.218C157.478 86.482 157.928 86.614 158.492 86.614C158.972 86.614 159.368 86.47 159.68 86.182C159.992 85.882 160.22 85.468 160.364 84.94C160.52 84.412 160.598 83.8 160.598 83.104C160.598 82.048 160.418 81.214 160.058 80.602C159.71 79.99 159.176 79.684 158.456 79.684ZM171.001 85.264C171.001 85.9 170.857 86.434 170.569 86.866C170.281 87.298 169.861 87.628 169.309 87.856C168.757 88.072 168.079 88.18 167.275 88.18C166.639 88.18 166.081 88.126 165.601 88.018C165.133 87.922 164.701 87.778 164.305 87.586V85.912C164.725 86.116 165.205 86.302 165.745 86.47C166.285 86.626 166.801 86.704 167.293 86.704C167.929 86.704 168.391 86.59 168.679 86.362C168.967 86.134 169.111 85.828 169.111 85.444C169.111 85.228 169.051 85.036 168.931 84.868C168.823 84.688 168.613 84.508 168.301 84.328C167.989 84.136 167.539 83.92 166.951 83.68C166.375 83.428 165.889 83.182 165.493 82.942C165.109 82.69 164.809 82.396 164.593 82.06C164.389 81.712 164.287 81.268 164.287 80.728C164.287 79.888 164.611 79.246 165.259 78.802C165.907 78.346 166.753 78.118 167.797 78.118C168.373 78.118 168.907 78.178 169.399 78.298C169.891 78.406 170.371 78.574 170.839 78.802L170.245 80.26C169.969 80.128 169.687 80.02 169.399 79.936C169.123 79.84 168.847 79.762 168.571 79.702C168.295 79.642 168.019 79.612 167.743 79.612C167.227 79.612 166.837 79.702 166.573 79.882C166.309 80.062 166.177 80.314 166.177 80.638C166.177 80.878 166.237 81.082 166.357 81.25C166.489 81.418 166.711 81.586 167.023 81.754C167.347 81.922 167.791 82.12 168.355 82.348C168.919 82.576 169.399 82.81 169.795 83.05C170.191 83.29 170.491 83.584 170.695 83.932C170.899 84.28 171.001 84.724 171.001 85.264ZM181.063 78.298V88H179.533L179.263 86.722H179.155C178.975 87.058 178.729 87.334 178.417 87.55C178.117 87.766 177.787 87.922 177.427 88.018C177.067 88.126 176.695 88.18 176.311 88.18C175.603 88.18 175.003 88.06 174.511 87.82C174.031 87.568 173.659 87.184 173.395 86.668C173.143 86.14 173.017 85.468 173.017 84.652V78.298H174.979V84.364C174.979 85.12 175.123 85.684 175.411 86.056C175.699 86.428 176.149 86.614 176.761 86.614C177.361 86.614 177.829 86.482 178.165 86.218C178.513 85.954 178.759 85.57 178.903 85.066C179.047 84.55 179.119 83.932 179.119 83.212V78.298H181.063ZM194.144 78.118C195.176 78.118 195.95 78.4 196.466 78.964C196.994 79.528 197.258 80.434 197.258 81.682V88H195.314V81.934C195.314 81.19 195.176 80.632 194.9 80.26C194.636 79.876 194.222 79.684 193.658 79.684C192.878 79.684 192.32 79.954 191.984 80.494C191.66 81.022 191.498 81.79 191.498 82.798V88H189.536V81.934C189.536 81.442 189.476 81.028 189.356 80.692C189.236 80.356 189.056 80.104 188.816 79.936C188.576 79.768 188.264 79.684 187.88 79.684C187.34 79.684 186.914 79.816 186.602 80.08C186.29 80.344 186.068 80.734 185.936 81.25C185.804 81.754 185.738 82.372 185.738 83.104V88H183.794V78.298H185.324L185.612 79.594H185.702C185.894 79.258 186.122 78.982 186.386 78.766C186.662 78.55 186.974 78.388 187.322 78.28C187.67 78.172 188.03 78.118 188.402 78.118C189.086 78.118 189.662 78.25 190.13 78.514C190.598 78.766 190.946 79.156 191.174 79.684H191.3C191.588 79.144 191.99 78.748 192.506 78.496C193.022 78.244 193.568 78.118 194.144 78.118Z" fill="black"/>
<g filter="url(#filter1_d_188_1289)">
<rect x="99" y="102" width="568" height="31" rx="15.5" fill="#DACEEC"/>
</g>
<rect x="102.18" y="106" width="489.354" height="23" rx="11.5" fill="url(#paint0_linear_188_1289)"/>
<ellipse cx="582.396" cy="117.5" rx="5.95804" ry="7.5" fill="white"/>
<path d="M714.092 179H700.12V176.06L705.132 170.992C706.14 169.947 706.952 169.079 707.568 168.388C708.184 167.679 708.632 167.044 708.912 166.484C709.192 165.905 709.332 165.289 709.332 164.636C709.332 163.833 709.108 163.236 708.66 162.844C708.231 162.452 707.643 162.256 706.896 162.256C706.131 162.256 705.384 162.433 704.656 162.788C703.928 163.143 703.163 163.647 702.36 164.3L700.064 161.584C700.643 161.08 701.249 160.613 701.884 160.184C702.537 159.755 703.284 159.409 704.124 159.148C704.983 158.868 706.009 158.728 707.204 158.728C708.511 158.728 709.631 158.971 710.564 159.456C711.516 159.923 712.244 160.567 712.748 161.388C713.271 162.191 713.532 163.105 713.532 164.132C713.532 164.972 713.401 165.747 713.14 166.456C712.897 167.165 712.533 167.856 712.048 168.528C711.581 169.181 711.003 169.863 710.312 170.572C709.621 171.263 708.837 172.019 707.96 172.84L705.384 175.248V175.444H714.092V179ZM730.563 174.856H728.155V179H724.039V174.856H715.499V171.916L724.263 159.008H728.155V171.58H730.563V174.856ZM724.039 168.192C724.039 167.875 724.039 167.501 724.039 167.072C724.058 166.624 724.077 166.185 724.095 165.756C724.114 165.308 724.133 164.916 724.151 164.58C724.17 164.225 724.189 163.983 724.207 163.852H724.095C723.927 164.225 723.75 164.589 723.563 164.944C723.377 165.299 723.153 165.663 722.891 166.036L719.223 171.58H724.039V168.192Z" fill="black"/>
<path d="M706.522 209H705.262V200.11H702.14V199.004H709.63V200.11H706.522V209ZM712.69 201.37C713.605 201.37 714.282 201.571 714.72 201.972C715.159 202.373 715.378 203.013 715.378 203.89V209H714.482L714.244 207.936H714.188C713.974 208.207 713.75 208.435 713.516 208.622C713.292 208.799 713.031 208.93 712.732 209.014C712.443 209.098 712.088 209.14 711.668 209.14C711.22 209.14 710.814 209.061 710.45 208.902C710.096 208.743 709.816 208.501 709.61 208.174C709.405 207.838 709.302 207.418 709.302 206.914C709.302 206.167 709.596 205.593 710.184 205.192C710.772 204.781 711.678 204.557 712.9 204.52L714.174 204.478V204.03C714.174 203.405 714.039 202.971 713.768 202.728C713.498 202.485 713.115 202.364 712.62 202.364C712.228 202.364 711.855 202.425 711.5 202.546C711.146 202.658 710.814 202.789 710.506 202.938L710.128 202.014C710.455 201.837 710.842 201.687 711.29 201.566C711.738 201.435 712.205 201.37 712.69 201.37ZM713.054 205.374C712.121 205.411 711.472 205.561 711.108 205.822C710.754 206.083 710.576 206.452 710.576 206.928C710.576 207.348 710.702 207.656 710.954 207.852C711.216 208.048 711.547 208.146 711.948 208.146C712.583 208.146 713.11 207.973 713.53 207.628C713.95 207.273 714.16 206.732 714.16 206.004V205.332L713.054 205.374ZM718.928 200.95C718.928 201.267 718.919 201.566 718.9 201.846C718.891 202.117 718.877 202.331 718.858 202.49H718.928C719.143 202.173 719.437 201.907 719.81 201.692C720.183 201.477 720.664 201.37 721.252 201.37C722.185 201.37 722.932 201.697 723.492 202.35C724.061 202.994 724.346 203.96 724.346 205.248C724.346 206.107 724.215 206.825 723.954 207.404C723.702 207.983 723.343 208.417 722.876 208.706C722.409 208.995 721.868 209.14 721.252 209.14C720.664 209.14 720.183 209.033 719.81 208.818C719.437 208.603 719.143 208.347 718.928 208.048H718.83L718.578 209H717.696V198.36H718.928V200.95ZM721.042 202.392C720.51 202.392 720.09 202.495 719.782 202.7C719.474 202.896 719.255 203.204 719.124 203.624C718.993 204.035 718.928 204.562 718.928 205.206V205.262C718.928 206.186 719.077 206.895 719.376 207.39C719.684 207.875 720.249 208.118 721.07 208.118C721.742 208.118 722.241 207.871 722.568 207.376C722.904 206.881 723.072 206.167 723.072 205.234C723.072 204.291 722.904 203.582 722.568 203.106C722.241 202.63 721.733 202.392 721.042 202.392ZM731.195 206.928C731.195 207.413 731.074 207.819 730.831 208.146C730.588 208.473 730.243 208.72 729.795 208.888C729.347 209.056 728.815 209.14 728.199 209.14C727.676 209.14 727.224 209.098 726.841 209.014C726.468 208.93 726.136 208.813 725.847 208.664V207.544C726.146 207.693 726.505 207.833 726.925 207.964C727.354 208.085 727.788 208.146 728.227 208.146C728.852 208.146 729.305 208.048 729.585 207.852C729.865 207.647 730.005 207.376 730.005 207.04C730.005 206.853 729.954 206.685 729.851 206.536C729.748 206.387 729.562 206.237 729.291 206.088C729.03 205.939 728.652 205.771 728.157 205.584C727.672 205.397 727.256 205.211 726.911 205.024C726.566 204.837 726.3 204.613 726.113 204.352C725.926 204.091 725.833 203.755 725.833 203.344C725.833 202.709 726.09 202.219 726.603 201.874C727.126 201.529 727.807 201.356 728.647 201.356C729.104 201.356 729.529 201.403 729.921 201.496C730.322 201.58 730.696 201.701 731.041 201.86L730.621 202.84C730.416 202.747 730.196 202.667 729.963 202.602C729.739 202.527 729.51 202.471 729.277 202.434C729.044 202.387 728.806 202.364 728.563 202.364C728.059 202.364 727.672 202.448 727.401 202.616C727.14 202.775 727.009 202.994 727.009 203.274C727.009 203.479 727.07 203.657 727.191 203.806C727.312 203.946 727.513 204.086 727.793 204.226C728.082 204.357 728.465 204.515 728.941 204.702C729.417 204.879 729.823 205.061 730.159 205.248C730.495 205.435 730.752 205.663 730.929 205.934C731.106 206.195 731.195 206.527 731.195 206.928Z" fill="black"/>
<path d="M48.0422 183.123C45.5106 183.123 43.0358 182.373 40.9309 180.966C38.8259 179.56 37.1853 177.561 36.2165 175.222C35.2477 172.883 34.9943 170.309 35.4881 167.826C35.982 165.343 37.2011 163.063 38.9912 161.272C40.7813 159.482 43.0621 158.263 45.545 157.769C48.028 157.276 50.6016 157.529 52.9405 158.498C55.2794 159.467 57.2785 161.107 58.685 163.212C60.0915 165.317 60.8422 167.792 60.8422 170.323C60.8422 173.718 59.4936 176.974 57.0932 179.374C54.6927 181.775 51.437 183.123 48.0422 183.123ZM48.0422 161.79C46.3545 161.79 44.7046 162.291 43.3013 163.228C41.898 164.166 40.8043 165.499 40.1584 167.058C39.5126 168.617 39.3436 170.333 39.6728 171.988C40.0021 173.644 40.8148 175.164 42.0082 176.357C43.2016 177.551 44.7221 178.364 46.3774 178.693C48.0327 179.022 49.7485 178.853 51.3078 178.207C52.867 177.561 54.1997 176.468 55.1374 175.064C56.075 173.661 56.5755 172.011 56.5755 170.323C56.5755 168.06 55.6765 165.89 54.0762 164.289C52.4759 162.689 50.3054 161.79 48.0422 161.79Z" fill="#515151"/>
<path d="M48.0143 212.99C43.2836 212.987 38.6123 211.935 34.3369 209.91C30.0615 207.885 26.2883 204.937 23.289 201.278L22.1797 199.913L23.289 198.569C26.2909 194.915 30.0652 191.972 34.3404 189.951C38.6157 187.931 43.2856 186.883 48.0143 186.883C52.7431 186.883 57.413 187.931 61.6883 189.951C65.9635 191.972 69.7378 194.915 72.7397 198.569L73.849 199.913L72.7397 201.278C69.7403 204.937 65.9672 207.885 61.6918 209.91C57.4164 211.935 52.7451 212.987 48.0143 212.99ZM27.769 199.934C30.3637 202.712 33.5016 204.926 36.9879 206.441C40.4743 207.955 44.2347 208.736 48.0357 208.736C51.8366 208.736 55.597 207.955 59.0834 206.441C62.5698 204.926 65.7077 202.712 68.3023 199.934C65.7077 197.157 62.5698 194.942 59.0834 193.428C55.597 191.914 51.8366 191.132 48.0357 191.132C44.2347 191.132 40.4743 191.914 36.9879 193.428C33.5016 194.942 30.3637 197.157 27.769 199.934Z" fill="#515151"/>
<path d="M48.0214 213C40.7525 213.005 33.6987 210.535 28.0207 205.997C22.3427 201.458 18.379 195.122 16.782 188.031C15.1849 180.94 16.0497 173.516 19.2339 166.982C22.4182 160.448 27.7322 155.192 34.3013 152.08C40.8704 148.969 48.3031 148.186 55.3762 149.862C62.4493 151.537 68.7412 155.571 73.2163 161.299C77.6914 167.027 80.0832 174.107 79.9978 181.376C79.9125 188.644 77.3551 195.667 72.7467 201.288C69.7474 204.946 65.9742 207.894 61.6988 209.92C57.4234 211.945 52.7521 212.997 48.0214 213ZM48.0214 153.267C42.5362 153.267 37.1743 154.893 32.6135 157.941C28.0528 160.988 24.4982 165.319 22.3991 170.387C20.3 175.455 19.7508 181.031 20.8209 186.411C21.891 191.79 24.5324 196.732 28.4109 200.61C32.2895 204.489 37.2311 207.13 42.6109 208.2C47.9906 209.271 53.5668 208.721 58.6344 206.622C63.702 204.523 68.0334 200.969 71.0808 196.408C74.1281 191.847 75.7547 186.485 75.7547 181C75.7547 173.645 72.8328 166.591 67.6318 161.39C62.4308 156.189 55.3767 153.267 48.0214 153.267Z" fill="#515151"/>
<path d="M24.9297 199.95C24.9297 199.95 46.4123 223.95 68.279 202.339L71.095 199.95C71.095 199.95 52.8337 181.006 34.295 192.376L24.9297 199.95Z" fill="#515151"/>
<path d="M48.0338 180.997C53.9249 180.997 58.7005 176.222 58.7005 170.331C58.7005 164.44 53.9249 159.664 48.0338 159.664C42.1428 159.664 37.3672 164.44 37.3672 170.331C37.3672 176.222 42.1428 180.997 48.0338 180.997Z" fill="#515151"/>
<path d="M91.566 168V155.148H93.564V166.326H98.676V168H91.566ZM108.68 163.14C108.68 163.944 108.578 164.658 108.374 165.282C108.17 165.906 107.876 166.434 107.492 166.866C107.12 167.298 106.664 167.628 106.124 167.856C105.584 168.072 104.978 168.18 104.306 168.18C103.694 168.18 103.124 168.072 102.596 167.856C102.068 167.628 101.612 167.298 101.228 166.866C100.844 166.434 100.544 165.906 100.328 165.282C100.124 164.658 100.022 163.938 100.022 163.122C100.022 162.054 100.196 161.148 100.544 160.404C100.892 159.66 101.39 159.096 102.038 158.712C102.698 158.316 103.478 158.118 104.378 158.118C105.218 158.118 105.962 158.316 106.61 158.712C107.258 159.096 107.762 159.66 108.122 160.404C108.494 161.148 108.68 162.06 108.68 163.14ZM102.038 163.14C102.038 163.86 102.116 164.484 102.272 165.012C102.44 165.528 102.692 165.924 103.028 166.2C103.376 166.476 103.814 166.614 104.342 166.614C104.882 166.614 105.32 166.476 105.656 166.2C106.004 165.924 106.256 165.528 106.412 165.012C106.58 164.484 106.664 163.86 106.664 163.14C106.664 162.396 106.58 161.772 106.412 161.268C106.244 160.764 105.992 160.38 105.656 160.116C105.32 159.84 104.876 159.702 104.324 159.702C103.52 159.702 102.938 160.002 102.578 160.602C102.218 161.202 102.038 162.048 102.038 163.14ZM115.523 158.118C115.679 158.118 115.853 158.13 116.045 158.154C116.237 158.166 116.399 158.184 116.531 158.208L116.333 159.99C116.201 159.954 116.051 159.924 115.883 159.9C115.715 159.876 115.547 159.864 115.379 159.864C115.055 159.864 114.743 159.936 114.443 160.08C114.143 160.212 113.873 160.41 113.633 160.674C113.393 160.926 113.201 161.238 113.057 161.61C112.913 161.982 112.841 162.408 112.841 162.888V168H110.897V158.298H112.427L112.679 160.026H112.787C112.967 159.678 113.189 159.36 113.453 159.072C113.729 158.784 114.041 158.556 114.389 158.388C114.737 158.208 115.115 158.118 115.523 158.118ZM121.513 158.118C122.317 158.118 123.013 158.298 123.601 158.658C124.189 159.006 124.639 159.51 124.951 160.17C125.275 160.83 125.437 161.61 125.437 162.51V163.554H119.335C119.359 164.55 119.599 165.312 120.055 165.84C120.511 166.368 121.153 166.632 121.981 166.632C122.569 166.632 123.091 166.578 123.547 166.47C124.015 166.35 124.489 166.176 124.969 165.948V167.532C124.513 167.748 124.045 167.91 123.565 168.018C123.097 168.126 122.527 168.18 121.855 168.18C120.979 168.18 120.199 167.994 119.515 167.622C118.831 167.25 118.297 166.698 117.913 165.966C117.529 165.222 117.337 164.31 117.337 163.23C117.337 162.138 117.511 161.214 117.859 160.458C118.207 159.702 118.693 159.126 119.317 158.73C119.953 158.322 120.685 158.118 121.513 158.118ZM121.513 159.594C120.901 159.594 120.409 159.816 120.037 160.26C119.665 160.704 119.449 161.334 119.389 162.15H123.511C123.511 161.646 123.439 161.202 123.295 160.818C123.151 160.434 122.929 160.134 122.629 159.918C122.341 159.702 121.969 159.594 121.513 159.594ZM137.964 158.118C138.996 158.118 139.77 158.4 140.286 158.964C140.814 159.528 141.078 160.434 141.078 161.682V168H139.134V161.934C139.134 161.19 138.996 160.632 138.72 160.26C138.456 159.876 138.042 159.684 137.478 159.684C136.698 159.684 136.14 159.954 135.804 160.494C135.48 161.022 135.318 161.79 135.318 162.798V168H133.356V161.934C133.356 161.442 133.296 161.028 133.176 160.692C133.056 160.356 132.876 160.104 132.636 159.936C132.396 159.768 132.084 159.684 131.7 159.684C131.16 159.684 130.734 159.816 130.422 160.08C130.11 160.344 129.888 160.734 129.756 161.25C129.624 161.754 129.558 162.372 129.558 163.104V168H127.614V158.298H129.144L129.432 159.594H129.522C129.714 159.258 129.942 158.982 130.206 158.766C130.482 158.55 130.794 158.388 131.142 158.28C131.49 158.172 131.85 158.118 132.222 158.118C132.906 158.118 133.482 158.25 133.95 158.514C134.418 158.766 134.766 159.156 134.994 159.684H135.12C135.408 159.144 135.81 158.748 136.326 158.496C136.842 158.244 137.388 158.118 137.964 158.118ZM152.285 168H147.407V166.884L148.847 166.434V156.732L147.407 156.264V155.148H152.285V156.264L150.845 156.732V166.434L152.285 166.884V168ZM158.978 158.118C160.07 158.118 160.946 158.538 161.606 159.378C162.266 160.218 162.596 161.472 162.596 163.14C162.596 164.232 162.44 165.156 162.128 165.912C161.828 166.668 161.402 167.238 160.85 167.622C160.298 167.994 159.656 168.18 158.924 168.18C158.48 168.18 158.084 168.12 157.736 168C157.388 167.868 157.094 167.7 156.854 167.496C156.626 167.28 156.422 167.052 156.242 166.812H156.134C156.158 167.028 156.182 167.286 156.206 167.586C156.23 167.874 156.242 168.132 156.242 168.36V172.32H154.298V158.298H155.882L156.152 159.594H156.242C156.422 159.33 156.632 159.084 156.872 158.856C157.124 158.628 157.418 158.448 157.754 158.316C158.102 158.184 158.51 158.118 158.978 158.118ZM158.456 159.684C157.928 159.684 157.502 159.804 157.178 160.044C156.854 160.272 156.614 160.62 156.458 161.088C156.314 161.544 156.242 162.126 156.242 162.834V163.122C156.242 163.866 156.308 164.502 156.44 165.03C156.584 165.546 156.818 165.942 157.142 166.218C157.478 166.482 157.928 166.614 158.492 166.614C158.972 166.614 159.368 166.47 159.68 166.182C159.992 165.882 160.22 165.468 160.364 164.94C160.52 164.412 160.598 163.8 160.598 163.104C160.598 162.048 160.418 161.214 160.058 160.602C159.71 159.99 159.176 159.684 158.456 159.684ZM171.001 165.264C171.001 165.9 170.857 166.434 170.569 166.866C170.281 167.298 169.861 167.628 169.309 167.856C168.757 168.072 168.079 168.18 167.275 168.18C166.639 168.18 166.081 168.126 165.601 168.018C165.133 167.922 164.701 167.778 164.305 167.586V165.912C164.725 166.116 165.205 166.302 165.745 166.47C166.285 166.626 166.801 166.704 167.293 166.704C167.929 166.704 168.391 166.59 168.679 166.362C168.967 166.134 169.111 165.828 169.111 165.444C169.111 165.228 169.051 165.036 168.931 164.868C168.823 164.688 168.613 164.508 168.301 164.328C167.989 164.136 167.539 163.92 166.951 163.68C166.375 163.428 165.889 163.182 165.493 162.942C165.109 162.69 164.809 162.396 164.593 162.06C164.389 161.712 164.287 161.268 164.287 160.728C164.287 159.888 164.611 159.246 165.259 158.802C165.907 158.346 166.753 158.118 167.797 158.118C168.373 158.118 168.907 158.178 169.399 158.298C169.891 158.406 170.371 158.574 170.839 158.802L170.245 160.26C169.969 160.128 169.687 160.02 169.399 159.936C169.123 159.84 168.847 159.762 168.571 159.702C168.295 159.642 168.019 159.612 167.743 159.612C167.227 159.612 166.837 159.702 166.573 159.882C166.309 160.062 166.177 160.314 166.177 160.638C166.177 160.878 166.237 161.082 166.357 161.25C166.489 161.418 166.711 161.586 167.023 161.754C167.347 161.922 167.791 162.12 168.355 162.348C168.919 162.576 169.399 162.81 169.795 163.05C170.191 163.29 170.491 163.584 170.695 163.932C170.899 164.28 171.001 164.724 171.001 165.264ZM181.063 158.298V168H179.533L179.263 166.722H179.155C178.975 167.058 178.729 167.334 178.417 167.55C178.117 167.766 177.787 167.922 177.427 168.018C177.067 168.126 176.695 168.18 176.311 168.18C175.603 168.18 175.003 168.06 174.511 167.82C174.031 167.568 173.659 167.184 173.395 166.668C173.143 166.14 173.017 165.468 173.017 164.652V158.298H174.979V164.364C174.979 165.12 175.123 165.684 175.411 166.056C175.699 166.428 176.149 166.614 176.761 166.614C177.361 166.614 177.829 166.482 178.165 166.218C178.513 165.954 178.759 165.57 178.903 165.066C179.047 164.55 179.119 163.932 179.119 163.212V158.298H181.063ZM194.144 158.118C195.176 158.118 195.95 158.4 196.466 158.964C196.994 159.528 197.258 160.434 197.258 161.682V168H195.314V161.934C195.314 161.19 195.176 160.632 194.9 160.26C194.636 159.876 194.222 159.684 193.658 159.684C192.878 159.684 192.32 159.954 191.984 160.494C191.66 161.022 191.498 161.79 191.498 162.798V168H189.536V161.934C189.536 161.442 189.476 161.028 189.356 160.692C189.236 160.356 189.056 160.104 188.816 159.936C188.576 159.768 188.264 159.684 187.88 159.684C187.34 159.684 186.914 159.816 186.602 160.08C186.29 160.344 186.068 160.734 185.936 161.25C185.804 161.754 185.738 162.372 185.738 163.104V168H183.794V158.298H185.324L185.612 159.594H185.702C185.894 159.258 186.122 158.982 186.386 158.766C186.662 158.55 186.974 158.388 187.322 158.28C187.67 158.172 188.03 158.118 188.402 158.118C189.086 158.118 189.662 158.25 190.13 158.514C190.598 158.766 190.946 159.156 191.174 159.684H191.3C191.588 159.144 191.99 158.748 192.506 158.496C193.022 158.244 193.568 158.118 194.144 158.118Z" fill="black"/>
<g filter="url(#filter2_d_188_1289)">
<rect x="90" y="182" width="577" height="31" rx="15.5" fill="#DACEEC"/>
</g>
<rect x="93.2266" y="186" width="472.898" height="23" rx="11.5" fill="url(#paint1_linear_188_1289)"/>
<ellipse cx="556.849" cy="197.5" rx="6.05245" ry="7.5" fill="white"/>
<path d="M714.092 259H700.12V256.06L705.132 250.992C706.14 249.947 706.952 249.079 707.568 248.388C708.184 247.679 708.632 247.044 708.912 246.484C709.192 245.905 709.332 245.289 709.332 244.636C709.332 243.833 709.108 243.236 708.66 242.844C708.231 242.452 707.643 242.256 706.896 242.256C706.131 242.256 705.384 242.433 704.656 242.788C703.928 243.143 703.163 243.647 702.36 244.3L700.064 241.584C700.643 241.08 701.249 240.613 701.884 240.184C702.537 239.755 703.284 239.409 704.124 239.148C704.983 238.868 706.009 238.728 707.204 238.728C708.511 238.728 709.631 238.971 710.564 239.456C711.516 239.923 712.244 240.567 712.748 241.388C713.271 242.191 713.532 243.105 713.532 244.132C713.532 244.972 713.401 245.747 713.14 246.456C712.897 247.165 712.533 247.856 712.048 248.528C711.581 249.181 711.003 249.863 710.312 250.572C709.621 251.263 708.837 252.019 707.96 252.84L705.384 255.248V255.444H714.092V259ZM729.331 243.488C729.331 244.403 729.135 245.196 728.743 245.868C728.37 246.54 727.857 247.091 727.203 247.52C726.569 247.949 725.841 248.267 725.019 248.472V248.556C726.625 248.743 727.838 249.228 728.659 250.012C729.499 250.796 729.919 251.851 729.919 253.176C729.919 254.333 729.63 255.379 729.051 256.312C728.491 257.227 727.614 257.955 726.419 258.496C725.243 259.019 723.722 259.28 721.855 259.28C720.754 259.28 719.727 259.187 718.775 259C717.823 258.813 716.927 258.543 716.087 258.188V254.604C716.946 255.033 717.842 255.36 718.775 255.584C719.727 255.808 720.605 255.92 721.407 255.92C722.919 255.92 723.974 255.659 724.571 255.136C725.187 254.613 725.495 253.876 725.495 252.924C725.495 252.364 725.355 251.897 725.075 251.524C724.795 251.132 724.301 250.843 723.591 250.656C722.901 250.451 721.93 250.348 720.679 250.348H719.167V247.1H720.707C721.939 247.1 722.873 246.988 723.507 246.764C724.161 246.521 724.599 246.204 724.823 245.812C725.066 245.401 725.187 244.935 725.187 244.412C725.187 243.703 724.963 243.152 724.515 242.76C724.086 242.349 723.358 242.144 722.331 242.144C721.697 242.144 721.118 242.228 720.595 242.396C720.073 242.545 719.597 242.732 719.167 242.956C718.757 243.18 718.393 243.395 718.075 243.6L716.115 240.688C716.638 240.315 717.217 239.979 717.851 239.68C718.505 239.381 719.223 239.148 720.007 238.98C720.791 238.812 721.669 238.728 722.639 238.728C724.693 238.728 726.317 239.148 727.511 239.988C728.725 240.809 729.331 241.976 729.331 243.488Z" fill="black"/>
<path d="M706.522 289H705.262V280.11H702.14V279.004H709.63V280.11H706.522V289ZM712.69 281.37C713.605 281.37 714.282 281.571 714.72 281.972C715.159 282.373 715.378 283.013 715.378 283.89V289H714.482L714.244 287.936H714.188C713.974 288.207 713.75 288.435 713.516 288.622C713.292 288.799 713.031 288.93 712.732 289.014C712.443 289.098 712.088 289.14 711.668 289.14C711.22 289.14 710.814 289.061 710.45 288.902C710.096 288.743 709.816 288.501 709.61 288.174C709.405 287.838 709.302 287.418 709.302 286.914C709.302 286.167 709.596 285.593 710.184 285.192C710.772 284.781 711.678 284.557 712.9 284.52L714.174 284.478V284.03C714.174 283.405 714.039 282.971 713.768 282.728C713.498 282.485 713.115 282.364 712.62 282.364C712.228 282.364 711.855 282.425 711.5 282.546C711.146 282.658 710.814 282.789 710.506 282.938L710.128 282.014C710.455 281.837 710.842 281.687 711.29 281.566C711.738 281.435 712.205 281.37 712.69 281.37ZM713.054 285.374C712.121 285.411 711.472 285.561 711.108 285.822C710.754 286.083 710.576 286.452 710.576 286.928C710.576 287.348 710.702 287.656 710.954 287.852C711.216 288.048 711.547 288.146 711.948 288.146C712.583 288.146 713.11 287.973 713.53 287.628C713.95 287.273 714.16 286.732 714.16 286.004V285.332L713.054 285.374ZM718.928 280.95C718.928 281.267 718.919 281.566 718.9 281.846C718.891 282.117 718.877 282.331 718.858 282.49H718.928C719.143 282.173 719.437 281.907 719.81 281.692C720.183 281.477 720.664 281.37 721.252 281.37C722.185 281.37 722.932 281.697 723.492 282.35C724.061 282.994 724.346 283.96 724.346 285.248C724.346 286.107 724.215 286.825 723.954 287.404C723.702 287.983 723.343 288.417 722.876 288.706C722.409 288.995 721.868 289.14 721.252 289.14C720.664 289.14 720.183 289.033 719.81 288.818C719.437 288.603 719.143 288.347 718.928 288.048H718.83L718.578 289H717.696V278.36H718.928V280.95ZM721.042 282.392C720.51 282.392 720.09 282.495 719.782 282.7C719.474 282.896 719.255 283.204 719.124 283.624C718.993 284.035 718.928 284.562 718.928 285.206V285.262C718.928 286.186 719.077 286.895 719.376 287.39C719.684 287.875 720.249 288.118 721.07 288.118C721.742 288.118 722.241 287.871 722.568 287.376C722.904 286.881 723.072 286.167 723.072 285.234C723.072 284.291 722.904 283.582 722.568 283.106C722.241 282.63 721.733 282.392 721.042 282.392ZM731.195 286.928C731.195 287.413 731.074 287.819 730.831 288.146C730.588 288.473 730.243 288.72 729.795 288.888C729.347 289.056 728.815 289.14 728.199 289.14C727.676 289.14 727.224 289.098 726.841 289.014C726.468 288.93 726.136 288.813 725.847 288.664V287.544C726.146 287.693 726.505 287.833 726.925 287.964C727.354 288.085 727.788 288.146 728.227 288.146C728.852 288.146 729.305 288.048 729.585 287.852C729.865 287.647 730.005 287.376 730.005 287.04C730.005 286.853 729.954 286.685 729.851 286.536C729.748 286.387 729.562 286.237 729.291 286.088C729.03 285.939 728.652 285.771 728.157 285.584C727.672 285.397 727.256 285.211 726.911 285.024C726.566 284.837 726.3 284.613 726.113 284.352C725.926 284.091 725.833 283.755 725.833 283.344C725.833 282.709 726.09 282.219 726.603 281.874C727.126 281.529 727.807 281.356 728.647 281.356C729.104 281.356 729.529 281.403 729.921 281.496C730.322 281.58 730.696 281.701 731.041 281.86L730.621 282.84C730.416 282.747 730.196 282.667 729.963 282.602C729.739 282.527 729.51 282.471 729.277 282.434C729.044 282.387 728.806 282.364 728.563 282.364C728.059 282.364 727.672 282.448 727.401 282.616C727.14 282.775 727.009 282.994 727.009 283.274C727.009 283.479 727.07 283.657 727.191 283.806C727.312 283.946 727.513 284.086 727.793 284.226C728.082 284.357 728.465 284.515 728.941 284.702C729.417 284.879 729.823 285.061 730.159 285.248C730.495 285.435 730.752 285.663 730.929 285.934C731.106 286.195 731.195 286.527 731.195 286.928Z" fill="black"/>
<path d="M48.0422 263.123C45.5106 263.123 43.0358 262.373 40.9309 260.966C38.8259 259.56 37.1853 257.561 36.2165 255.222C35.2477 252.883 34.9943 250.309 35.4881 247.826C35.982 245.343 37.2011 243.063 38.9912 241.272C40.7813 239.482 43.0621 238.263 45.545 237.769C48.028 237.276 50.6016 237.529 52.9405 238.498C55.2794 239.467 57.2785 241.107 58.685 243.212C60.0915 245.317 60.8422 247.792 60.8422 250.323C60.8422 253.718 59.4936 256.974 57.0932 259.374C54.6927 261.775 51.437 263.123 48.0422 263.123ZM48.0422 241.79C46.3545 241.79 44.7046 242.291 43.3013 243.228C41.898 244.166 40.8043 245.499 40.1584 247.058C39.5126 248.617 39.3436 250.333 39.6728 251.988C40.0021 253.644 40.8148 255.164 42.0082 256.357C43.2016 257.551 44.7221 258.364 46.3774 258.693C48.0327 259.022 49.7485 258.853 51.3078 258.207C52.867 257.561 54.1997 256.468 55.1374 255.064C56.075 253.661 56.5755 252.011 56.5755 250.323C56.5755 248.06 55.6765 245.89 54.0762 244.289C52.4759 242.689 50.3054 241.79 48.0422 241.79Z" fill="#515151"/>
<path d="M48.0143 292.99C43.2836 292.987 38.6123 291.935 34.3369 289.91C30.0615 287.885 26.2883 284.937 23.289 281.278L22.1797 279.913L23.289 278.569C26.2909 274.915 30.0652 271.972 34.3404 269.951C38.6157 267.931 43.2856 266.883 48.0143 266.883C52.7431 266.883 57.413 267.931 61.6883 269.951C65.9635 271.972 69.7378 274.915 72.7397 278.569L73.849 279.913L72.7397 281.278C69.7403 284.937 65.9672 287.885 61.6918 289.91C57.4164 291.935 52.7451 292.987 48.0143 292.99ZM27.769 279.934C30.3637 282.712 33.5016 284.926 36.9879 286.441C40.4743 287.955 44.2347 288.736 48.0357 288.736C51.8366 288.736 55.597 287.955 59.0834 286.441C62.5698 284.926 65.7077 282.712 68.3023 279.934C65.7077 277.157 62.5698 274.942 59.0834 273.428C55.597 271.914 51.8366 271.132 48.0357 271.132C44.2347 271.132 40.4743 271.914 36.9879 273.428C33.5016 274.942 30.3637 277.157 27.769 279.934Z" fill="#515151"/>
<path d="M48.0214 293C40.7525 293.005 33.6987 290.535 28.0207 285.997C22.3427 281.458 18.379 275.122 16.782 268.031C15.1849 260.94 16.0497 253.516 19.2339 246.982C22.4182 240.448 27.7322 235.192 34.3013 232.08C40.8704 228.969 48.3031 228.186 55.3762 229.862C62.4493 231.537 68.7412 235.571 73.2163 241.299C77.6914 247.027 80.0832 254.107 79.9978 261.376C79.9125 268.644 77.3551 275.667 72.7467 281.288C69.7474 284.946 65.9742 287.894 61.6988 289.92C57.4234 291.945 52.7521 292.997 48.0214 293ZM48.0214 233.267C42.5362 233.267 37.1743 234.893 32.6135 237.941C28.0528 240.988 24.4982 245.319 22.3991 250.387C20.3 255.455 19.7508 261.031 20.8209 266.411C21.891 271.79 24.5324 276.732 28.4109 280.61C32.2895 284.489 37.2311 287.13 42.6109 288.2C47.9906 289.271 53.5668 288.721 58.6344 286.622C63.702 284.523 68.0334 280.969 71.0808 276.408C74.1281 271.847 75.7547 266.485 75.7547 261C75.7547 253.645 72.8328 246.591 67.6318 241.39C62.4308 236.189 55.3767 233.267 48.0214 233.267Z" fill="#515151"/>
<path d="M24.9297 279.95C24.9297 279.95 46.4123 303.95 68.279 282.339L71.095 279.95C71.095 279.95 52.8337 261.006 34.295 272.376L24.9297 279.95Z" fill="#515151"/>
<path d="M48.0338 260.997C53.9249 260.997 58.7005 256.222 58.7005 250.331C58.7005 244.44 53.9249 239.664 48.0338 239.664C42.1428 239.664 37.3672 244.44 37.3672 250.331C37.3672 256.222 42.1428 260.997 48.0338 260.997Z" fill="#515151"/>
<path d="M91.566 248V235.148H93.564V246.326H98.676V248H91.566ZM108.68 243.14C108.68 243.944 108.578 244.658 108.374 245.282C108.17 245.906 107.876 246.434 107.492 246.866C107.12 247.298 106.664 247.628 106.124 247.856C105.584 248.072 104.978 248.18 104.306 248.18C103.694 248.18 103.124 248.072 102.596 247.856C102.068 247.628 101.612 247.298 101.228 246.866C100.844 246.434 100.544 245.906 100.328 245.282C100.124 244.658 100.022 243.938 100.022 243.122C100.022 242.054 100.196 241.148 100.544 240.404C100.892 239.66 101.39 239.096 102.038 238.712C102.698 238.316 103.478 238.118 104.378 238.118C105.218 238.118 105.962 238.316 106.61 238.712C107.258 239.096 107.762 239.66 108.122 240.404C108.494 241.148 108.68 242.06 108.68 243.14ZM102.038 243.14C102.038 243.86 102.116 244.484 102.272 245.012C102.44 245.528 102.692 245.924 103.028 246.2C103.376 246.476 103.814 246.614 104.342 246.614C104.882 246.614 105.32 246.476 105.656 246.2C106.004 245.924 106.256 245.528 106.412 245.012C106.58 244.484 106.664 243.86 106.664 243.14C106.664 242.396 106.58 241.772 106.412 241.268C106.244 240.764 105.992 240.38 105.656 240.116C105.32 239.84 104.876 239.702 104.324 239.702C103.52 239.702 102.938 240.002 102.578 240.602C102.218 241.202 102.038 242.048 102.038 243.14ZM115.523 238.118C115.679 238.118 115.853 238.13 116.045 238.154C116.237 238.166 116.399 238.184 116.531 238.208L116.333 239.99C116.201 239.954 116.051 239.924 115.883 239.9C115.715 239.876 115.547 239.864 115.379 239.864C115.055 239.864 114.743 239.936 114.443 240.08C114.143 240.212 113.873 240.41 113.633 240.674C113.393 240.926 113.201 241.238 113.057 241.61C112.913 241.982 112.841 242.408 112.841 242.888V248H110.897V238.298H112.427L112.679 240.026H112.787C112.967 239.678 113.189 239.36 113.453 239.072C113.729 238.784 114.041 238.556 114.389 238.388C114.737 238.208 115.115 238.118 115.523 238.118ZM121.513 238.118C122.317 238.118 123.013 238.298 123.601 238.658C124.189 239.006 124.639 239.51 124.951 240.17C125.275 240.83 125.437 241.61 125.437 242.51V243.554H119.335C119.359 244.55 119.599 245.312 120.055 245.84C120.511 246.368 121.153 246.632 121.981 246.632C122.569 246.632 123.091 246.578 123.547 246.47C124.015 246.35 124.489 246.176 124.969 245.948V247.532C124.513 247.748 124.045 247.91 123.565 248.018C123.097 248.126 122.527 248.18 121.855 248.18C120.979 248.18 120.199 247.994 119.515 247.622C118.831 247.25 118.297 246.698 117.913 245.966C117.529 245.222 117.337 244.31 117.337 243.23C117.337 242.138 117.511 241.214 117.859 240.458C118.207 239.702 118.693 239.126 119.317 238.73C119.953 238.322 120.685 238.118 121.513 238.118ZM121.513 239.594C120.901 239.594 120.409 239.816 120.037 240.26C119.665 240.704 119.449 241.334 119.389 242.15H123.511C123.511 241.646 123.439 241.202 123.295 240.818C123.151 240.434 122.929 240.134 122.629 239.918C122.341 239.702 121.969 239.594 121.513 239.594ZM137.964 238.118C138.996 238.118 139.77 238.4 140.286 238.964C140.814 239.528 141.078 240.434 141.078 241.682V248H139.134V241.934C139.134 241.19 138.996 240.632 138.72 240.26C138.456 239.876 138.042 239.684 137.478 239.684C136.698 239.684 136.14 239.954 135.804 240.494C135.48 241.022 135.318 241.79 135.318 242.798V248H133.356V241.934C133.356 241.442 133.296 241.028 133.176 240.692C133.056 240.356 132.876 240.104 132.636 239.936C132.396 239.768 132.084 239.684 131.7 239.684C131.16 239.684 130.734 239.816 130.422 240.08C130.11 240.344 129.888 240.734 129.756 241.25C129.624 241.754 129.558 242.372 129.558 243.104V248H127.614V238.298H129.144L129.432 239.594H129.522C129.714 239.258 129.942 238.982 130.206 238.766C130.482 238.55 130.794 238.388 131.142 238.28C131.49 238.172 131.85 238.118 132.222 238.118C132.906 238.118 133.482 238.25 133.95 238.514C134.418 238.766 134.766 239.156 134.994 239.684H135.12C135.408 239.144 135.81 238.748 136.326 238.496C136.842 238.244 137.388 238.118 137.964 238.118ZM152.285 248H147.407V246.884L148.847 246.434V236.732L147.407 236.264V235.148H152.285V236.264L150.845 236.732V246.434L152.285 246.884V248ZM158.978 238.118C160.07 238.118 160.946 238.538 161.606 239.378C162.266 240.218 162.596 241.472 162.596 243.14C162.596 244.232 162.44 245.156 162.128 245.912C161.828 246.668 161.402 247.238 160.85 247.622C160.298 247.994 159.656 248.18 158.924 248.18C158.48 248.18 158.084 248.12 157.736 248C157.388 247.868 157.094 247.7 156.854 247.496C156.626 247.28 156.422 247.052 156.242 246.812H156.134C156.158 247.028 156.182 247.286 156.206 247.586C156.23 247.874 156.242 248.132 156.242 248.36V252.32H154.298V238.298H155.882L156.152 239.594H156.242C156.422 239.33 156.632 239.084 156.872 238.856C157.124 238.628 157.418 238.448 157.754 238.316C158.102 238.184 158.51 238.118 158.978 238.118ZM158.456 239.684C157.928 239.684 157.502 239.804 157.178 240.044C156.854 240.272 156.614 240.62 156.458 241.088C156.314 241.544 156.242 242.126 156.242 242.834V243.122C156.242 243.866 156.308 244.502 156.44 245.03C156.584 245.546 156.818 245.942 157.142 246.218C157.478 246.482 157.928 246.614 158.492 246.614C158.972 246.614 159.368 246.47 159.68 246.182C159.992 245.882 160.22 245.468 160.364 244.94C160.52 244.412 160.598 243.8 160.598 243.104C160.598 242.048 160.418 241.214 160.058 240.602C159.71 239.99 159.176 239.684 158.456 239.684ZM171.001 245.264C171.001 245.9 170.857 246.434 170.569 246.866C170.281 247.298 169.861 247.628 169.309 247.856C168.757 248.072 168.079 248.18 167.275 248.18C166.639 248.18 166.081 248.126 165.601 248.018C165.133 247.922 164.701 247.778 164.305 247.586V245.912C164.725 246.116 165.205 246.302 165.745 246.47C166.285 246.626 166.801 246.704 167.293 246.704C167.929 246.704 168.391 246.59 168.679 246.362C168.967 246.134 169.111 245.828 169.111 245.444C169.111 245.228 169.051 245.036 168.931 244.868C168.823 244.688 168.613 244.508 168.301 244.328C167.989 244.136 167.539 243.92 166.951 243.68C166.375 243.428 165.889 243.182 165.493 242.942C165.109 242.69 164.809 242.396 164.593 242.06C164.389 241.712 164.287 241.268 164.287 240.728C164.287 239.888 164.611 239.246 165.259 238.802C165.907 238.346 166.753 238.118 167.797 238.118C168.373 238.118 168.907 238.178 169.399 238.298C169.891 238.406 170.371 238.574 170.839 238.802L170.245 240.26C169.969 240.128 169.687 240.02 169.399 239.936C169.123 239.84 168.847 239.762 168.571 239.702C168.295 239.642 168.019 239.612 167.743 239.612C167.227 239.612 166.837 239.702 166.573 239.882C166.309 240.062 166.177 240.314 166.177 240.638C166.177 240.878 166.237 241.082 166.357 241.25C166.489 241.418 166.711 241.586 167.023 241.754C167.347 241.922 167.791 242.12 168.355 242.348C168.919 242.576 169.399 242.81 169.795 243.05C170.191 243.29 170.491 243.584 170.695 243.932C170.899 244.28 171.001 244.724 171.001 245.264ZM181.063 238.298V248H179.533L179.263 246.722H179.155C178.975 247.058 178.729 247.334 178.417 247.55C178.117 247.766 177.787 247.922 177.427 248.018C177.067 248.126 176.695 248.18 176.311 248.18C175.603 248.18 175.003 248.06 174.511 247.82C174.031 247.568 173.659 247.184 173.395 246.668C173.143 246.14 173.017 245.468 173.017 244.652V238.298H174.979V244.364C174.979 245.12 175.123 245.684 175.411 246.056C175.699 246.428 176.149 246.614 176.761 246.614C177.361 246.614 177.829 246.482 178.165 246.218C178.513 245.954 178.759 245.57 178.903 245.066C179.047 244.55 179.119 243.932 179.119 243.212V238.298H181.063ZM194.144 238.118C195.176 238.118 195.95 238.4 196.466 238.964C196.994 239.528 197.258 240.434 197.258 241.682V248H195.314V241.934C195.314 241.19 195.176 240.632 194.9 240.26C194.636 239.876 194.222 239.684 193.658 239.684C192.878 239.684 192.32 239.954 191.984 240.494C191.66 241.022 191.498 241.79 191.498 242.798V248H189.536V241.934C189.536 241.442 189.476 241.028 189.356 240.692C189.236 240.356 189.056 240.104 188.816 239.936C188.576 239.768 188.264 239.684 187.88 239.684C187.34 239.684 186.914 239.816 186.602 240.08C186.29 240.344 186.068 240.734 185.936 241.25C185.804 241.754 185.738 242.372 185.738 243.104V248H183.794V238.298H185.324L185.612 239.594H185.702C185.894 239.258 186.122 238.982 186.386 238.766C186.662 238.55 186.974 238.388 187.322 238.28C187.67 238.172 188.03 238.118 188.402 238.118C189.086 238.118 189.662 238.25 190.13 238.514C190.598 238.766 190.946 239.156 191.174 239.684H191.3C191.588 239.144 191.99 238.748 192.506 238.496C193.022 238.244 193.568 238.118 194.144 238.118Z" fill="black"/>
<g filter="url(#filter3_d_188_1289)">
<rect x="90" y="262" width="577" height="31" rx="15.5" fill="#DACEEC"/>
</g>
<rect x="93.2266" y="266" width="451.109" height="23" rx="11.5" fill="url(#paint2_linear_188_1289)"/>
<ellipse cx="535.06" cy="277.5" rx="6.05245" ry="7.5" fill="white"/>
<defs>
<filter id="filter0_d_188_1289" x="0" y="0" width="748" height="309" filterUnits="userSpaceOnUse" color-interpolation-filters="sRGB">
<feFlood flood-opacity="0" result="BackgroundImageFix"/>
<feColorMatrix in="SourceAlpha" type="matrix" values="0 0 0 0 0 0 0 0 0 0 0 0 0 0 0 0 0 0 127 0" result="hardAlpha"/>
<feOffset/>
<feComposite in2="hardAlpha" operator="out"/>
<feColorMatrix type="matrix" values="0 0 0 0 0 0 0 0 0 0 0 0 0 0 0 0 0 0 0.25 0"/>
<feBlend mode="normal" in2="BackgroundImageFix" result="effect1_dropShadow_188_1289"/>
<feBlend mode="normal" in="SourceGraphic" in2="effect1_dropShadow_188_1289" result="shape"/>
</filter>
<filter id="filter1_d_188_1289" x="91" y="100" width="588" height="51" filterUnits="userSpaceOnUse" color-interpolation-filters="sRGB">
<feFlood flood-opacity="0" result="BackgroundImageFix"/>
<feColorMatrix in="SourceAlpha" type="matrix" values="0 0 0 0 0 0 0 0 0 0 0 0 0 0 0 0 0 0 127 0" result="hardAlpha"/>
<feOffset dx="2" dy="8"/>
<feGaussianBlur stdDeviation="5"/>
<feComposite in2="hardAlpha" operator="out"/>
<feColorMatrix type="matrix" values="0 0 0 0 0 0 0 0 0 0 0 0 0 0 0 0 0 0 0.06 0"/>
<feBlend mode="normal" in2="BackgroundImageFix" result="effect1_dropShadow_188_1289"/>
<feBlend mode="normal" in="SourceGraphic" in2="effect1_dropShadow_188_1289" result="shape"/>
</filter>
<filter id="filter2_d_188_1289" x="82" y="180" width="597" height="51" filterUnits="userSpaceOnUse" color-interpolation-filters="sRGB">
<feFlood flood-opacity="0" result="BackgroundImageFix"/>
<feColorMatrix in="SourceAlpha" type="matrix" values="0 0 0 0 0 0 0 0 0 0 0 0 0 0 0 0 0 0 127 0" result="hardAlpha"/>
<feOffset dx="2" dy="8"/>
<feGaussianBlur stdDeviation="5"/>
<feComposite in2="hardAlpha" operator="out"/>
<feColorMatrix type="matrix" values="0 0 0 0 0 0 0 0 0 0 0 0 0 0 0 0 0 0 0.06 0"/>
<feBlend mode="normal" in2="BackgroundImageFix" result="effect1_dropShadow_188_1289"/>
<feBlend mode="normal" in="SourceGraphic" in2="effect1_dropShadow_188_1289" result="shape"/>
</filter>
<filter id="filter3_d_188_1289" x="82" y="260" width="597" height="51" filterUnits="userSpaceOnUse" color-interpolation-filters="sRGB">
<feFlood flood-opacity="0" result="BackgroundImageFix"/>
<feColorMatrix in="SourceAlpha" type="matrix" values="0 0 0 0 0 0 0 0 0 0 0 0 0 0 0 0 0 0 127 0" result="hardAlpha"/>
<feOffset dx="2" dy="8"/>
<feGaussianBlur stdDeviation="5"/>
<feComposite in2="hardAlpha" operator="out"/>
<feColorMatrix type="matrix" values="0 0 0 0 0 0 0 0 0 0 0 0 0 0 0 0 0 0 0.06 0"/>
<feBlend mode="normal" in2="BackgroundImageFix" result="effect1_dropShadow_188_1289"/>
<feBlend mode="normal" in="SourceGraphic" in2="effect1_dropShadow_188_1289" result="shape"/>
</filter>
<linearGradient id="paint0_linear_188_1289" x1="591.534" y1="117.5" x2="102.18" y2="117.5" gradientUnits="userSpaceOnUse">
<stop stop-color="#420E95"/>
<stop offset="1" stop-color="#925EE7"/>
</linearGradient>
<linearGradient id="paint1_linear_188_1289" x1="566.124" y1="197.5" x2="93.2266" y2="197.5" gradientUnits="userSpaceOnUse">
<stop stop-color="#420E95"/>
<stop offset="1" stop-color="#925EE7"/>
</linearGradient>
<linearGradient id="paint2_linear_188_1289" x1="544.336" y1="277.5" x2="93.2266" y2="277.5" gradientUnits="userSpaceOnUse">
<stop stop-color="#420E95"/>
<stop offset="1" stop-color="#925EE7"/>
</linearGradient>
</defs>
</svg>
