<svg width="25" height="25" viewBox="0 0 25 25" fill="none" xmlns="http://www.w3.org/2000/svg">
<path d="M16.4062 16.6016H8.59375C6.43638 16.6016 4.6875 14.8527 4.6875 12.6953V10.7422C4.6875 8.58481 6.43638 6.83594 8.59375 6.83594H16.4062C18.5636 6.83594 20.3125 8.58481 20.3125 10.7422V12.6953C20.3125 14.8527 18.5636 16.6016 16.4062 16.6016Z" stroke="#AFAFAF" stroke-width="1.5" stroke-miterlimit="10" stroke-linecap="round" stroke-linejoin="round"/>
<path d="M8.59375 6.83594V4.88281C8.59375 2.72544 10.3426 0.976562 12.5 0.976562C14.6574 0.976562 16.4062 2.72544 16.4062 4.88281V6.83594" stroke="#AFAFAF" stroke-width="1.5" stroke-miterlimit="10" stroke-linecap="round" stroke-linejoin="round"/>
<path d="M12.5 22.4434L10.6425 21.8398" stroke="#AFAFAF" stroke-width="1.5" stroke-miterlimit="10" stroke-linecap="round" stroke-linejoin="round"/>
<path d="M12.4999 22.4434L11.3519 24.0235" stroke="#AFAFAF" stroke-width="1.5" stroke-miterlimit="10" stroke-linecap="round" stroke-linejoin="round"/>
<path d="M12.5 22.4434L13.648 24.0235" stroke="#AFAFAF" stroke-width="1.5" stroke-miterlimit="10" stroke-linecap="round" stroke-linejoin="round"/>
<path d="M12.5 22.4434L14.3575 21.8398" stroke="#AFAFAF" stroke-width="1.5" stroke-miterlimit="10" stroke-linecap="round" stroke-linejoin="round"/>
<path d="M12.5 22.4434V20.4902" stroke="#AFAFAF" stroke-width="1.5" stroke-miterlimit="10" stroke-linecap="round" stroke-linejoin="round"/>
<path d="M4.68748 22.4434L2.82996 21.8398" stroke="#AFAFAF" stroke-width="1.5" stroke-miterlimit="10" stroke-linecap="round" stroke-linejoin="round"/>
<path d="M4.68743 22.4434L3.53943 24.0235" stroke="#AFAFAF" stroke-width="1.5" stroke-miterlimit="10" stroke-linecap="round" stroke-linejoin="round"/>
<path d="M4.6875 22.4434L5.8355 24.0235" stroke="#AFAFAF" stroke-width="1.5" stroke-miterlimit="10" stroke-linecap="round" stroke-linejoin="round"/>
<path d="M4.6875 22.4434L6.54502 21.8398" stroke="#AFAFAF" stroke-width="1.5" stroke-miterlimit="10" stroke-linecap="round" stroke-linejoin="round"/>
<path d="M4.6875 22.4434V20.4902" stroke="#AFAFAF" stroke-width="1.5" stroke-miterlimit="10" stroke-linecap="round" stroke-linejoin="round"/>
<path d="M20.3125 22.4434L18.455 21.8398" stroke="#AFAFAF" stroke-width="1.5" stroke-miterlimit="10" stroke-linecap="round" stroke-linejoin="round"/>
<path d="M20.3124 22.4434L19.1644 24.0235" stroke="#AFAFAF" stroke-width="1.5" stroke-miterlimit="10" stroke-linecap="round" stroke-linejoin="round"/>
<path d="M20.3125 22.4434L21.4605 24.0235" stroke="#AFAFAF" stroke-width="1.5" stroke-miterlimit="10" stroke-linecap="round" stroke-linejoin="round"/>
<path d="M20.3125 22.4434L22.17 21.8398" stroke="#AFAFAF" stroke-width="1.5" stroke-miterlimit="10" stroke-linecap="round" stroke-linejoin="round"/>
<path d="M20.3125 22.4434V20.4902" stroke="#AFAFAF" stroke-width="1.5" stroke-miterlimit="10" stroke-linecap="round" stroke-linejoin="round"/>
<path d="M12.5 10.7422V12.6953" stroke="#AFAFAF" stroke-width="1.5" stroke-miterlimit="10" stroke-linecap="round" stroke-linejoin="round"/>
</svg>
